<?xml version="1.0" encoding="UTF-8"?>
<svg width="28px" height="32px" viewBox="0 0 28 32" version="1.1" xmlns="http://www.w3.org/2000/svg" xmlns:xlink="http://www.w3.org/1999/xlink">
    <!-- Generator: Sketch 42 (36781) - http://www.bohemiancoding.com/sketch -->
    <title>ico</title>
    <desc>Created with Sketch.</desc>
    <defs></defs>
    <g id="Page-1" stroke="none" stroke-width="1" fill="none" fill-rule="evenodd">
        <g id="g-scm---main-page" transform="translate(-794.000000, -1735.000000)" fill="#798B96">
            <g id="section" transform="translate(0.000000, 1483.000000)">
                <g id="items" transform="translate(135.000000, 45.000000)">
                    <g id="item" transform="translate(659.000000, 207.000000)">
                        <path d="M13.9998607,16.0001824 C11.8919099,16.0001824 10.0924482,15.2186606 8.60077911,13.6562736 C7.1092493,12.0938866 6.3634844,10.208529 6.3634844,7.99990879 C6.3634844,5.79158049 7.1092493,3.90622285 8.60077911,2.34347101 C10.0920303,0.781157004 11.8919796,0 13.9998607,0 C16.1077418,0 17.9074125,0.781157004 19.3991512,2.34347101 C20.8905417,3.90622285 21.6363763,5.79165346 21.6363763,7.99990879 C21.6363763,10.208529 20.8905417,12.0938866 19.3991512,13.6562736 C17.9079,15.2186606 16.108299,16.0001824 13.9998607,16.0001824 Z M27.9297907,24.4479886 C27.9767362,25.14968 27.9998607,25.8684466 28,26.6045803 C28,28.2711702 27.5163359,29.5872793 26.5481022,30.5526157 C25.5800775,31.5175872 24.2941607,32 22.6902124,32 L5.30971796,32 C3.70563038,32 2.41957423,31.5175872 1.45168881,30.5526157 C0.484012358,29.5872793 0,28.2709513 0,26.6045803 C0,25.8684466 0.0231244932,25.14968 0.0695127836,24.4479886 C0.115970726,23.7462973 0.208747307,22.9896586 0.348051483,22.177051 C0.487216354,21.3644434 0.662948572,20.6113073 0.875039179,19.9165483 C1.08719944,19.2225919 1.37221578,18.545127 1.73001856,17.8853212 C2.08782133,17.2255883 2.4988383,16.663199 2.96279086,16.1977155 C3.42688272,15.7326699 3.99357211,15.3611004 4.66313763,15.0833719 C5.33256384,14.8057164 6.0717118,14.6666332 6.88037254,14.6666332 C6.99968657,14.6666332 7.27794666,14.8159324 7.71557072,15.1146036 C8.15298584,15.4133478 8.64674949,15.7466804 9.19686168,16.1148932 C9.74704352,16.4824493 10.4631366,16.8160737 11.3445838,17.1142342 C12.2261006,17.4129054 13.1109608,17.5622775 13.9991642,17.5622775 C14.8877159,17.5622775 15.7725063,17.4129054 16.6541625,17.1142342 C17.5354007,16.8160737 18.2517027,16.4824493 18.8018149,16.1148932 C19.3519968,15.7466804 19.8458997,15.4132748 20.2830362,15.1146036 C20.7205906,14.8159324 20.9990597,14.6666332 21.1182344,14.6666332 C21.9269648,14.6666332 22.6661128,14.8057164 23.3359569,15.0833719 C24.0049652,15.3611004 24.5715849,15.732378 25.0358858,16.1977155 C25.5001866,16.663199 25.9111339,17.2255883 26.2689367,17.8853212 C26.6268787,18.545127 26.9119647,19.2223 27.124125,19.9165483 C27.3362853,20.6113073 27.5121568,21.3644434 27.6513913,22.177051 C27.7903472,22.9896586 27.8832631,23.7468081 27.9297907,24.4479886 Z" id="ico"></path>
                    </g>
                </g>
            </g>
        </g>
    </g>
</svg>