<?xml version="1.0" encoding="UTF-8"?>
<svg width="37px" height="32px" viewBox="0 0 37 32" version="1.1" xmlns="http://www.w3.org/2000/svg" xmlns:xlink="http://www.w3.org/1999/xlink">
    <!-- Generator: Sketch 42 (36781) - http://www.bohemiancoding.com/sketch -->
    <title>ico</title>
    <desc>Created with Sketch.</desc>
    <defs></defs>
    <g id="Page-1" stroke="none" stroke-width="1" fill="none" fill-rule="evenodd">
        <g id="g-scm---main-page" transform="translate(-574.000000, -1528.000000)" fill="#798B96">
            <g id="section" transform="translate(0.000000, 1483.000000)">
                <g id="items" transform="translate(135.000000, 45.000000)">
                    <g id="item" transform="translate(439.000000, 0.000000)">
                        <g id="ico">
                            <path d="M23.1083789,21.9664727 C23.1083789,22.3264 22.9775059,22.6381818 22.7164102,22.9008 C22.4550254,23.1641455 22.1453672,23.2955636 21.7877246,23.2955636 L15.1854648,23.2955636 C14.8276055,23.2955636 14.5182363,23.1641455 14.2568516,22.9008 C13.9955391,22.6382545 13.8648828,22.3264727 13.8648828,21.9664727 L13.8648828,18.6443636 L0,18.6443636 L0,28.6112 C0,29.5246545 0.323099609,30.3066182 0.969660156,30.9571636 C1.61607617,31.6077818 2.39336523,31.9330909 3.30123828,31.9330909 L33.6720234,31.9330909 C34.5796797,31.9330909 35.3568965,31.6077818 36.0033848,30.9571636 C36.6500898,30.3066182 36.9730449,29.5246545 36.9730449,28.6112 L36.9730449,18.6443636 L23.1083789,18.6443636 L23.1083789,21.9664727 L23.1083789,21.9664727 Z" id="Shape"></path>
                            <rect id="Rectangle-path" x="15.8453945" y="18.6443636" width="5.28232812" height="2.65781818"></rect>
                            <path d="M36.0033125,6.3312 C35.3568965,5.68050909 34.5796074,5.35534545 33.6719512,5.35534545 L26.4091836,5.35534545 L26.4091836,2.03294545 C26.4091836,1.4792 26.2167402,1.00865455 25.8314922,0.621018182 C25.4466777,0.2336 24.9787578,0.0397090909 24.4287441,0.0397090909 L12.5445176,0.0397090909 C11.9944316,0.0397090909 11.5268008,0.2336 11.1415527,0.621018182 C10.7563047,1.00843636 10.5638613,1.47912727 10.5638613,2.03294545 L10.5638613,5.35534545 L3.30123828,5.35534545 C2.3934375,5.35534545 1.61614844,5.68050909 0.969660156,6.3312 C0.323099609,6.98181818 0,7.76363636 0,8.67730909 L0,16.6508364 L36.9729727,16.6508364 L36.9729727,8.67730909 C36.9729727,7.76363636 36.6500898,6.98181818 36.0033125,6.3312 Z M23.7684531,5.35534545 L13.2047363,5.35534545 L13.2047363,2.69738182 L23.7684531,2.69738182 L23.7684531,5.35534545 Z" id="Shape"></path>
                        </g>
                    </g>
                </g>
            </g>
        </g>
    </g>
</svg>