<?xml version="1.0" encoding="UTF-8"?>
<svg width="43px" height="43px" viewBox="0 0 43 43" version="1.1" xmlns="http://www.w3.org/2000/svg" xmlns:xlink="http://www.w3.org/1999/xlink">
    <!-- Generator: Sketch 42 (36781) - http://www.bohemiancoding.com/sketch -->
    <title>ico</title>
    <desc>Created with Sketch.</desc>
    <defs></defs>
    <g id="Symbols" stroke="none" stroke-width="1" fill="none" fill-rule="evenodd">
        <g id="footer" transform="translate(-135.000000, -320.000000)" fill="#000000">
            <g id="footer-nav">
                <g transform="translate(135.000000, 215.000000)">
                    <g id="callback" transform="translate(0.000000, 2.000000)">
                        <g id="phone" transform="translate(0.000000, 103.000000)">
                            <g id="ico">
                                <rect id="bg" fill-opacity="0.129999995" x="0" y="0" width="42.6355932" height="43"></rect>
                                <path d="M29.7120154,25.3978139 C29.6671423,25.2614469 29.3816435,25.0605584 28.8557164,24.7956259 C28.7132433,24.712118 28.5102289,24.598638 28.2475416,24.4546686 C27.9846175,24.3106991 27.7459651,24.1780338 27.5320186,24.0567922 C27.317638,23.9355903 27.1167943,23.8181698 26.9291323,23.7046899 C26.899138,23.6819621 26.8052478,23.6157687 26.6475012,23.5056721 C26.4895968,23.3958939 26.3564377,23.314416 26.2473135,23.2612782 C26.1384262,23.2084589 26.0313148,23.1818701 25.9261372,23.1818701 C25.7759287,23.1818701 25.5883062,23.289897 25.3630329,23.5056721 C25.1377596,23.7217258 24.9311144,23.9564076 24.7434129,24.2104339 C24.555672,24.4643408 24.3565648,24.6990226 24.1464465,24.9149569 C23.9360125,25.1309709 23.7631109,25.2388783 23.6280574,25.2388783 C23.5602544,25.2388783 23.4757177,25.2198124 23.3744079,25.182198 C23.2731375,25.1443449 23.1960994,25.111905 23.1432147,25.085754 C23.0908035,25.0590458 23.0008599,25.0061867 22.8730682,24.9263806 C22.7450397,24.8468132 22.6738426,24.8032283 22.6588455,24.7956259 C21.6297632,24.2197082 20.7471796,23.5605612 20.0109369,22.8183442 C19.274931,22.0756894 18.6212911,21.185642 18.0504119,20.1476447 C18.0429133,20.1324796 17.9996188,20.0604749 17.9208047,19.9317502 C17.8418722,19.8029061 17.7892637,19.7121142 17.7629792,19.6589366 C17.7366947,19.6059581 17.7047665,19.5282615 17.6672736,19.4260062 C17.6297807,19.3237508 17.6109553,19.2385712 17.6109553,19.1703081 C17.6109553,19.0340207 17.7180272,18.8596811 17.9321315,18.6475281 C18.1461964,18.4354946 18.3791262,18.2346458 18.630684,18.0453799 C18.8824392,17.856114 19.1151321,17.6477025 19.329276,17.4205038 C19.5433409,17.1931857 19.6503733,17.0038799 19.6503733,16.8523876 C19.6503733,16.7463907 19.6240888,16.638324 19.5715592,16.528506 C19.5189902,16.4184492 19.4382423,16.284152 19.329276,16.1249775 C19.2202702,15.9658827 19.1545589,15.8712696 19.1319842,15.8408199 C19.0194265,15.651554 18.9031195,15.448914 18.7827869,15.2329797 C18.6624543,15.0170852 18.5311107,14.7764329 18.3883218,14.5113014 C18.2456514,14.2462893 18.1330542,14.0416592 18.0503329,13.8977295 C17.7875667,13.3675063 17.5885384,13.0794877 17.4532876,13.0341913 C17.4006791,13.0114634 17.3217466,13 17.2166875,13 C17.0137521,13 16.7490125,13.0378134 16.4222715,13.113679 C16.0954121,13.1894251 15.8382106,13.268873 15.6503908,13.3523411 C15.2747905,13.5113563 14.8766946,13.9734757 14.4559844,14.7385399 C14.0728856,15.450546 13.8813559,16.155268 13.8813559,16.8521886 C13.8813559,17.0565798 13.8944982,17.2554384 13.9207827,17.4488041 C13.9470672,17.6419708 13.9940321,17.8598157 14.0617167,18.102299 C14.1292829,18.3447027 14.1837857,18.524774 14.2249885,18.6420353 C14.2662307,18.7593762 14.3432294,18.9695788 14.4559449,19.2727227 C14.5685027,19.575787 14.6361873,19.7613114 14.6587225,19.8294949 C14.9216071,20.5719905 15.233351,21.2348392 15.5938751,21.81824 C16.1870527,22.7879343 16.9965448,23.7900685 18.0218778,24.8242446 C19.0472502,25.8583411 20.0406944,26.6747121 21.00225,27.2731985 C21.5806277,27.6367642 22.2380959,27.9511327 22.9741807,28.2164632 C23.0418259,28.2390717 23.225778,28.3071756 23.5261556,28.4210934 C23.8266516,28.5346927 24.0351517,28.6123495 24.1514982,28.6540238 C24.2678842,28.6957379 24.4464689,28.7507464 24.686621,28.8190095 C24.9272861,28.8872726 25.1430875,28.9346389 25.3346172,28.9613471 C25.5262653,28.987498 25.7234781,29.0009914 25.9261767,29.0009914 C26.6171517,29.0009914 27.315941,28.8077053 28.0220315,28.421372 C28.7805332,27.9972252 29.2386179,27.5956471 29.3963644,27.216558 C29.4793225,27.0273319 29.5578998,26.7678525 29.633004,26.4381994 C29.7083451,26.1087055 29.7457591,25.841743 29.7457591,25.6371129 C29.7459959,25.530718 29.7346691,25.4513099 29.7120154,25.3978139 Z" opacity="0.180706522"></path>
                            </g>
                        </g>
                    </g>
                </g>
            </g>
        </g>
    </g>
</svg>