<?xml version="1.0" encoding="UTF-8"?>
<svg width="43px" height="43px" viewBox="0 0 43 43" version="1.1" xmlns="http://www.w3.org/2000/svg" xmlns:xlink="http://www.w3.org/1999/xlink">
    <!-- Generator: Sketch 42 (36781) - http://www.bohemiancoding.com/sketch -->
    <title>ico</title>
    <desc>Created with Sketch.</desc>
    <defs></defs>
    <g id="Symbols" stroke="none" stroke-width="1" fill="none" fill-rule="evenodd">
        <g id="footer" transform="translate(-135.000000, -267.000000)" fill="#000000">
            <g id="footer-nav">
                <g transform="translate(135.000000, 215.000000)">
                    <g id="callback" transform="translate(0.000000, 2.000000)">
                        <g id="name" transform="translate(0.000000, 50.000000)">
                            <g id="ico">
                                <rect id="bg" fill-opacity="0.129999995" x="0" y="0" width="42.6355932" height="43"></rect>
                                <path d="M21.8134903,22.0000912 C20.7684469,22.0000912 19.8763409,21.6093303 19.1368269,20.8281368 C18.3973821,20.0469433 18.0276596,19.1042645 18.0276596,17.9999544 C18.0276596,16.8957902 18.3973821,15.9531114 19.1368269,15.1717355 C19.8761337,14.3905785 20.7684814,14 21.8134903,14 C22.8584991,14 23.7507087,14.3905785 24.4902572,15.1717355 C25.229633,15.9531114 25.5993899,16.8958267 25.5993899,17.9999544 C25.5993899,19.1042645 25.229633,20.0469433 24.4902572,20.8281368 C23.7509504,21.6093303 22.8587754,22.0000912 21.8134903,22.0000912 Z M28.7194301,26.2239943 C28.742704,26.57484 28.7541682,26.9342233 28.7542373,27.3022902 C28.7542373,28.1355851 28.5144547,28.7936396 28.0344405,29.2763078 C27.55453,29.7587936 26.9170203,30 26.1218426,30 L17.5052415,30 C16.7099947,30 16.072416,29.7587936 15.5925745,29.2763078 C15.1128366,28.7936396 14.8728814,28.1354756 14.8728814,27.3022902 C14.8728814,26.9342233 14.8843456,26.57484 14.9073432,26.2239943 C14.9303753,25.8731486 14.9763705,25.4948293 15.0454323,25.0885255 C15.1144251,24.6822217 15.2015465,24.3056537 15.3066932,23.9582741 C15.4118743,23.6112959 15.5531748,23.2725635 15.73056,22.9426606 C15.9079453,22.6127941 16.1117122,22.3315995 16.3417226,22.0988578 C16.571802,21.866335 16.8527455,21.6805502 17.1846911,21.541686 C17.5165677,21.4028582 17.8830097,21.3333166 18.2839135,21.3333166 C18.3430649,21.3333166 18.4810159,21.4079662 18.6979736,21.5573018 C18.9148277,21.7066739 19.1596173,21.8733402 19.4323424,22.0574466 C19.7051021,22.2412246 20.0601143,22.4080369 20.497103,22.5571171 C20.9341262,22.7064527 21.3728068,22.7811388 21.813145,22.7811388 C22.2536557,22.7811388 22.6923019,22.7064527 23.1293941,22.5571171 C23.5662791,22.4080369 23.921395,22.2412246 24.1941201,22.0574466 C24.4668798,21.8733402 24.7117384,21.7066374 24.9284544,21.5573018 C25.1453776,21.4079662 25.2834321,21.3333166 25.3425145,21.3333166 C25.7434529,21.3333166 26.1098949,21.4028582 26.4419786,21.541686 C26.773648,21.6805502 27.0545569,21.866189 27.28474,22.0988578 C27.514923,22.3315995 27.7186554,22.6127941 27.8960406,22.9426606 C28.073495,23.2725635 28.21483,23.61115 28.3200111,23.9582741 C28.4251923,24.3056537 28.5123828,24.6822217 28.5814101,25.0885255 C28.6502993,25.4948293 28.6963635,25.873404 28.7194301,26.2239943 Z" opacity="0.180706522"></path>
                            </g>
                        </g>
                    </g>
                </g>
            </g>
        </g>
    </g>
</svg>