<?xml version="1.0" encoding="UTF-8"?>
<svg width="16px" height="17px" viewBox="0 0 16 17" version="1.1" xmlns="http://www.w3.org/2000/svg" xmlns:xlink="http://www.w3.org/1999/xlink">
    <!-- Generator: Sketch 42 (36781) - http://www.bohemiancoding.com/sketch -->
    <title>Shape</title>
    <desc>Created with Sketch.</desc>
    <defs></defs>
    <g id="Symbols" stroke="none" stroke-width="1" fill="none" fill-rule="evenodd">
        <g id="top-nav" transform="translate(-1267.000000, -22.000000)" fill="#FFFFFF">
            <g id="item">
                <g transform="translate(1245.000000, 0.000000)">
                    <g id="search" transform="translate(22.000000, 22.000000)">
                        <path d="M15.6443246,14.773081 L12.3462538,11.2689796 C13.1410589,10.0499066 13.5386636,8.69088417 13.5386636,7.19262809 C13.5386636,6.21867218 13.360708,5.28719131 13.004797,4.39840018 C12.6491217,3.50946592 12.1682983,2.74326914 11.5625288,2.09963092 C10.9567593,1.45599271 10.235743,0.945111359 9.39927799,0.567165796 C8.56254351,0.189112882 7.68593407,0.000104317589 6.76928126,0.000104317589 C5.85269581,0.000104317589 4.97601901,0.189112882 4.13952028,0.567165796 C3.30288684,0.945111359 2.58176957,1.45599271 1.97600008,2.09963092 C1.37016323,2.74326914 0.889407155,3.50960905 0.5336645,4.39840018 C0.177888167,5.28729866 0,6.21867218 0,7.19262809 C0,8.16651243 0.177888167,9.09767125 0.5336645,9.98671286 C0.889373477,10.875504 1.37016323,11.6415934 1.97600008,12.2852316 C2.58176957,12.9290846 3.30302155,13.4397512 4.13952028,13.8179115 C4.97612004,14.1958928 5.85269581,14.3848656 6.76928126,14.3848656 C8.17968992,14.3848656 9.45855159,13.9623695 10.6059673,13.11795 L13.9040382,16.6118889 C14.1348011,16.8706395 14.4228843,17.0001043 14.7693317,17.0001043 C15.1026447,17.0001043 15.3912668,16.8706753 15.634659,16.6118889 C15.8781523,16.353174 15.9999999,16.0466524 15.9999999,15.6925028 C16.000101,15.3317334 15.8815201,15.0251044 15.6443246,14.773081 Z M9.81257666,10.4258125 C8.9696454,11.3215814 7.95529218,11.7694479 6.76928126,11.7694479 C5.58347241,11.7694479 4.56911919,11.321474 3.72612057,10.4258125 C2.88312196,9.53018668 2.46163949,8.45256591 2.46163949,7.19241339 C2.46163949,5.93247557 2.88322299,4.85453274 3.72612057,3.95901431 C4.5689508,3.06328118 5.58347241,2.61548618 6.76928126,2.61548618 C7.95515747,2.61548618 8.96951068,3.0634601 9.81257666,3.95901431 C10.6556426,4.85453274 11.0771251,5.93247557 11.0771251,7.19241339 C11.0771251,8.45256591 10.6555079,9.53018668 9.81257666,10.4258125 Z" id="Shape"></path>
                    </g>
                </g>
            </g>
        </g>
    </g>
</svg>