<?xml version="1.0" encoding="UTF-8"?>
<svg width="21px" height="51px" viewBox="0 0 21 51" version="1.1" xmlns="http://www.w3.org/2000/svg" xmlns:xlink="http://www.w3.org/1999/xlink">
    <!-- Generator: Sketch 42 (36781) - http://www.bohemiancoding.com/sketch -->
    <title>Combined Shape</title>
    <desc>Created with Sketch.</desc>
    <defs></defs>
    <g id="Page-1" stroke="none" stroke-width="1" fill="none" fill-rule="evenodd">
        <path d="M6.46155206,47.7273134 L5.65388016,47.7273134 C5.43512095,47.7273134 5.24588915,47.6460448 5.08583114,47.4845821 C4.92603834,47.322403 4.84607564,47.1305821 4.84607564,46.9090299 C4.84607564,46.789791 4.89235588,46.6215672 4.98487215,46.404 C5.07734422,46.1867015 5.20142122,45.9332687 5.35705896,45.6433433 C5.51278511,45.3534179 5.59902459,45.1916418 5.61573322,45.1576119 L3.38208191,34.6362985 L0.807848717,34.6362985 C0.589133711,34.6362985 0.399813507,34.5553881 0.239843901,34.3934328 C0.0799627013,34.2315224 0,34.0397463 0,33.818194 C0,33.5966418 0.0799627013,33.4047761 0.239843901,33.2428657 C0.399680899,33.0811343 0.5889569,33 0.807848717,33 L4.03858055,33 C4.17313359,33 4.29309975,33.0277612 4.39821379,33.0829701 C4.50341624,33.1385373 4.58753399,33.204403 4.65052285,33.2813284 C4.71360012,33.3578507 4.76827887,33.4623582 4.81455911,33.5945373 C4.86092775,33.7266269 4.89231168,33.8396418 4.90924131,33.9330896 C4.92608255,34.0269403 4.94915636,34.1525821 4.97859536,34.3103284 C5.00803437,34.4679851 5.02695313,34.5765672 5.03548425,34.6361642 L20.1922397,34.6361642 C20.4110431,34.6361642 20.6002307,34.7171642 20.7601561,34.8791194 C20.9201699,35.0412985 20.9999116,35.2330746 21,35.4546269 L21,42.0001343 C21,42.204806 20.9328561,42.3858806 20.7982146,42.543403 C20.6636174,42.7012836 20.4910058,42.7925821 20.2809103,42.8183284 L7.10509931,44.3779254 C7.11349782,44.4376567 7.13232818,44.5293134 7.16181138,44.6525373 C7.19125039,44.7762985 7.21644593,44.889403 7.23753063,44.9914478 C7.25861532,45.0934925 7.26913556,45.1872985 7.26913556,45.2727761 C7.26913556,45.4091642 7.16817658,45.6815821 6.96617019,46.0907463 L18.5764538,46.0907463 C18.7952131,46.0907463 18.9845775,46.1719701 19.1443261,46.333791 C19.3043399,46.4956119 19.3842142,46.6874328 19.3842142,46.9090299 C19.3842142,47.1306269 19.3043399,47.3224478 19.1443261,47.4845821 C18.9845333,47.6460896 18.7951689,47.7273134 18.5764538,47.7273134 L17.7692682,47.7273134 C17.7693713,47.7273134 17.7694745,47.7273134 17.7695776,47.7273134 C18.2151851,47.7273134 18.5960799,47.8872537 18.9113336,48.206597 C19.2270735,48.5262537 19.3847888,48.9117761 19.3847888,49.3636567 C19.3847888,49.8155373 19.2268967,50.2010597 18.9113336,50.520403 C18.5960799,50.8400597 18.2151851,51 17.7695776,51 C17.323307,51 16.9424123,50.8400597 16.6271586,50.520403 C16.3119048,50.2010597 16.1537033,49.8155373 16.1537033,49.3636567 C16.1537033,48.9117761 16.3119048,48.5262537 16.6271586,48.206597 C16.9423394,47.8873275 17.323131,47.7273874 17.7692682,47.7273135 L6.46155287,47.7273134 C6.01550252,47.7273134 5.63474038,47.8872537 5.31926565,48.206597 C5.00387931,48.5262537 4.84603144,48.9117761 4.84603144,49.3636567 C4.84603144,49.8155373 5.0037025,50.2010597 5.31926565,50.520403 C5.63491719,50.8400597 6.01545832,51 6.46150786,51 C6.90729218,51 7.28805432,50.8400597 7.60348486,50.520403 C7.919048,50.2010597 8.07689588,49.8155373 8.07689588,49.3636567 C8.07689588,48.9117761 7.91918061,48.5262537 7.60348486,48.206597 C7.28802055,47.8872643 6.90731735,47.727324 6.46155206,47.7273134 Z M10.9999204,9.00010262 C9.79537709,9.00010262 8.76711327,8.56049657 7.91473092,7.68165389 C7.06242817,6.80281122 6.6362768,5.74229754 6.6362768,4.49994869 C6.6362768,3.25776402 7.06242817,2.19725035 7.91473092,1.31820244 C8.76687446,0.439400815 9.79541689,0 10.9999204,0 C12.2044239,0 13.2328071,0.439400815 14.0852293,1.31820244 C14.9374524,2.19725035 15.3636436,3.25780507 15.3636436,4.49994869 C15.3636436,5.74229754 14.9374524,6.80281122 14.0852293,7.68165389 C13.2330857,8.56049657 12.2047423,9.00010262 10.9999204,9.00010262 Z M18.9598804,13.7519936 C18.9867064,14.146695 18.9999204,14.5510012 19,14.9650764 C19,15.9025332 18.7236205,16.6428446 18.1703441,17.1858463 C17.6171872,17.7286428 16.8823775,18 15.9658357,18 L6.03412455,18 C5.11750307,18 4.38261384,17.7286428 3.82953647,17.1858463 C3.27657849,16.6428446 3,15.9024101 3,14.9650764 C3,14.5510012 3.013214,14.146695 3.03972159,13.7519936 C3.06626899,13.3572922 3.11928418,12.931683 3.19888656,12.4745912 C3.27840935,12.0174994 3.37882776,11.5938604 3.50002239,11.2030584 C3.62125682,10.8127079 3.7841233,10.4316339 3.98858203,10.0604931 C4.19304076,9.6893934 4.4279076,9.37304944 4.69302335,9.11121499 C4.9582187,8.84962682 5.2820412,8.64061898 5.66465007,8.4843967 C6.04717934,8.32821547 6.4695496,8.24998119 6.93164145,8.24998119 C6.99982089,8.24998119 7.15882666,8.33396195 7.40889756,8.50196452 C7.65884905,8.67000814 7.94099971,8.85750771 8.25534953,9.06462742 C8.56973915,9.27137772 8.97893522,9.45904148 9.48261932,9.62675673 C9.98634322,9.7947593 10.4919776,9.87878111 10.9995224,9.87878111 C11.5072662,9.87878111 12.0128608,9.7947593 12.5166643,9.62675673 C13.020229,9.45904148 13.4295444,9.27137772 13.7438942,9.06462742 C14.0582839,8.85750771 14.3405141,8.66996709 14.5903064,8.50196452 C14.8403375,8.33396195 14.9994627,8.24998119 15.0675625,8.24998119 C15.5296942,8.24998119 15.9520644,8.32821547 16.3348325,8.4843967 C16.717123,8.64061898 17.0409057,8.84946264 17.3062204,9.11121499 C17.5715352,9.37304944 17.8063622,9.6893934 18.0108209,10.0604931 C18.2153593,10.4316339 18.3782656,10.8125438 18.4995,11.2030584 C18.6207344,11.5938604 18.7212324,12.0174994 18.800795,12.4745912 C18.8801984,12.931683 18.9332932,13.3575795 18.9598804,13.7519936 Z" id="Combined-Shape" fill="#798B96"></path>
    </g>
</svg>