<?xml version="1.0" encoding="UTF-8"?>
<svg width="42px" height="42px" viewBox="0 0 42 42" version="1.1" xmlns="http://www.w3.org/2000/svg" xmlns:xlink="http://www.w3.org/1999/xlink">
    <!-- Generator: Sketch 42 (36781) - http://www.bohemiancoding.com/sketch -->
    <title>euro</title>
    <desc>Created with Sketch.</desc>
    <defs></defs>
    <g id="Page-1" stroke="none" stroke-width="1" fill="none" fill-rule="evenodd">
        <g id="g-scm---catalog" transform="translate(-579.000000, -569.000000)">
            <g id="filter-right" transform="translate(428.000000, 569.000000)">
                <g id="price" transform="translate(109.000000, 0.000000)">
                    <g id="euro" transform="translate(42.000000, 0.000000)">
                        <rect id="bg" fill-opacity="0.236979167" fill="#798B96" x="0" y="0" width="42" height="42"></rect>
                        <path d="M26.9891582,28.2548603 L26.608599,26.5610657 C26.5870127,26.4614724 26.5326471,26.3868801 26.4455023,26.3373633 C26.3512762,26.287548 26.2571263,26.2806448 26.1630144,26.3161685 L26.1085727,26.3373633 L25.9779887,26.3692675 C25.9199302,26.3832979 25.852925,26.3994179 25.7768589,26.4171424 C25.7007547,26.4349043 25.6121631,26.4525169 25.5105513,26.4703907 C25.4094724,26.4881525 25.3020737,26.5042352 25.1900303,26.5184149 C25.0777585,26.5323333 24.9565781,26.544983 24.8260322,26.5556924 C24.6954482,26.5661778 24.5651687,26.5715512 24.4346228,26.5715512 C23.5142911,26.5715512 22.6863199,26.3283705 21.9508997,25.8418598 C21.2153653,25.3551998 20.6736892,24.6964439 20.3259093,23.8656293 L24.5322372,23.8656293 C24.6121104,23.8656293 24.6845598,23.8390612 24.7495473,23.7856636 C24.8149915,23.7325273 24.854852,23.6668906 24.8690526,23.5884921 L25.129916,22.3952759 C25.1517688,22.2890406 25.129916,22.1930296 25.0648905,22.1077279 C24.9924411,22.0224262 24.9016415,21.979738 24.7931006,21.979738 L19.8042586,21.979738 C19.78252,21.4968096 19.78252,21.1239598 19.8042586,20.8611142 L25.10852,20.8611142 C25.304358,20.8611142 25.4201704,20.768872 25.456376,20.5842009 L25.7172395,19.369678 C25.7388258,19.2702713 25.7138511,19.178029 25.6411353,19.0927273 C25.5761478,19.0075003 25.4855766,18.9647002 25.3696119,18.9647002 L20.2825463,18.9647002 C20.6448693,18.16926 21.1882968,17.544274 21.913019,17.0897048 C22.637665,16.6350237 23.4564991,16.4078137 24.3695211,16.4078137 C24.3986075,16.3936341 24.505397,16.3972163 24.6900421,16.4184858 C24.8748013,16.4396806 24.980068,16.4486361 25.0053092,16.4450539 C25.0303219,16.4415463 25.1249287,16.4522557 25.287797,16.4769581 C25.4508938,16.5018098 25.5324802,16.5142729 25.5324802,16.5142729 L25.7226836,16.5515131 C25.7771634,16.5622598 25.8188133,16.5709915 25.8477473,16.5781932 L25.8912626,16.5887906 C25.9853745,16.6173365 26.0721006,16.6083809 26.1521261,16.5622598 C26.2318851,16.5159521 26.282672,16.4468077 26.3044487,16.3544908 L26.7718862,14.6605844 C26.7935106,14.5682302 26.7825461,14.4830031 26.7393353,14.4049032 C26.6740433,14.3195268 26.6014797,14.2662786 26.5217588,14.2450465 C25.8551712,14.0817195 25.1519973,14 24.4130365,14 C22.789645,14 21.3387539,14.4546811 20.0597159,15.3636703 C18.780716,16.2727341 17.8984174,17.473152 17.4128961,18.9645882 L16.3477799,18.9645882 C16.2462822,18.9645882 16.1630206,18.9964924 16.0977667,19.0604127 C16.0327031,19.1242584 16,19.2059778 16,19.3054592 L16,20.5199821 C16,20.6193888 16.0325889,20.7011083 16.0977667,20.7648793 C16.1630587,20.8288742 16.2464345,20.8607038 16.3477799,20.8607038 L17.0760807,20.8607038 C17.0541898,21.2017239 17.0507254,21.5743871 17.0651163,21.9794395 L16.3477799,21.9794395 C16.2535919,21.9794395 16.1720815,22.0131348 16.1032489,22.0806 C16.0344544,22.1480279 16,22.2279563 16,22.3201612 L16,23.5240867 C16,23.6165529 16.0344544,23.69622 16.1032489,23.7639091 C16.1721196,23.8313743 16.2535919,23.8648084 16.3477799,23.8648084 L17.3804214,23.8648084 C17.8369325,25.4344192 18.6993199,26.682824 19.9674315,27.6096123 C21.2356192,28.5367364 22.7175002,29 24.4130365,29 C24.550854,29 24.6902705,28.996679 24.8316286,28.9892906 C24.9732533,28.9821635 25.1052459,28.9714168 25.2284822,28.9573865 C25.3516042,28.9433188 25.4730512,28.9274973 25.5926326,28.9096235 C25.7120999,28.8917497 25.8208691,28.8742864 25.9185977,28.856226 C26.0164405,28.8386134 26.1088392,28.8208888 26.1957175,28.8032389 C26.2827482,28.7852532 26.3606417,28.7659614 26.4295885,28.7445054 C26.4983831,28.7234598 26.5560989,28.7073398 26.6033833,28.6968917 C26.6505534,28.6861823 26.6885865,28.6735326 26.7173683,28.6596142 L26.7718481,28.6488675 C26.8516071,28.6205082 26.9132062,28.5689391 26.9566073,28.4942349 C27.0001226,28.4200903 27.0107826,28.34005 26.9891582,28.2548603 Z" id="Shape" fill="#93A4AF"></path>
                    </g>
                </g>
            </g>
        </g>
    </g>
</svg>