<?xml version="1.0" encoding="UTF-8"?>
<svg width="9px" height="9px" viewBox="0 0 9 9" version="1.1" xmlns="http://www.w3.org/2000/svg" xmlns:xlink="http://www.w3.org/1999/xlink">
    <!-- Generator: Sketch 42 (36781) - http://www.bohemiancoding.com/sketch -->
    <title>zoom-tool</title>
    <desc>Created with Sketch.</desc>
    <defs></defs>
    <g id="Page-1" stroke="none" stroke-width="1" fill="none" fill-rule="evenodd">
        <g id="g-scm---product" transform="translate(-676.000000, -356.000000)" fill-rule="nonzero" fill="#798B96">
            <g id="product" transform="translate(135.000000, 248.000000)">
                <g id="preview" transform="translate(0.000000, 2.000000)">
                    <g id="zoom-tool" transform="translate(541.000000, 106.000000)">
                        <g id="Group">
                            <path d="M8.84476471,7.84977941 L6.37739706,5.38808824 C6.39963235,5.35470588 6.41630882,5.29936765 6.43286765,5.22722059 C6.69344118,4.78920588 6.85466176,4.31241176 6.90422059,3.80782353 C6.91557353,3.69142647 6.92077941,3.56947059 6.92077941,3.45297059 C6.92077941,3.07044118 6.85691176,2.68697059 6.72680882,2.31083824 C6.55754412,1.82197059 6.28702941,1.38669118 5.91172059,1.01351471 C5.24460294,0.349838235 4.36482353,0.00432352941 3.46113235,0.00432352941 C2.56845588,0.00432352941 1.68464706,0.351485294 1.016,1.01351471 C0.570191176,1.45482353 0.274955882,1.97870588 0.117764706,2.57142647 C-0.0410882353,3.17076471 -0.0374264706,3.75791176 0.117764706,4.35122059 C0.273073529,4.94454412 0.568529412,5.46401471 1.016,5.90923529 C1.68298529,6.57292647 2.56845588,6.91830882 3.46113235,6.91830882 C4.15414706,6.91830882 4.78413235,6.71794118 5.36830882,6.35279412 L5.45702941,6.29733824 L7.93539706,8.77013235 C8.02977941,8.86427941 8.1295,8.91977941 8.22376471,8.93089706 C8.24588235,8.93644118 8.26255882,8.9375 8.27911765,8.93644118 C8.34583824,8.93207353 8.40698529,8.91492647 8.45654412,8.88651471 C8.52348529,8.84830882 8.59517647,8.79225 8.67276471,8.71466176 L8.78370588,8.60382353 C8.86129412,8.52610294 8.91736765,8.45444118 8.95558824,8.38760294 C8.98385294,8.33805882 8.99994118,8.27110294 8.99994118,8.18795588 L8.99994118,8.14357353 C8.99995588,8.04919118 8.94188235,7.94666176 8.84476471,7.84977941 Z M6.21108824,4.19602941 C6.08097059,4.68325 5.83411765,5.11083824 5.46814706,5.47679412 C4.93588235,6.00897059 4.22061765,6.30845588 3.46111765,6.30845588 C2.71251471,6.30845588 2.00198529,6.00411765 1.44842647,5.47679412 C0.360823529,4.44052941 0.365323529,2.50329412 1.44842647,1.45708824 C1.99548529,0.928602941 2.70707353,0.619882353 3.46111765,0.619882353 C4.25397059,0.619882353 4.91541176,0.900911765 5.46814706,1.45708824 C5.83020588,1.82127941 6.08357353,2.24438235 6.21108824,2.73229412 C6.33858824,3.22019118 6.34155882,3.70739706 6.21108824,4.19602941 Z" id="Shape"></path>
                            <polygon id="Shape" points="3.79930882 2.00589706 3.12841176 2.00589706 3.12841176 3.12592647 2.00839706 3.12592647 2.00839706 3.79682353 3.12841176 3.79682353 3.12841176 4.92226471 3.79930882 4.92226471 3.79930882 3.79682353 4.92477941 3.79682353 4.92477941 3.12592647 3.79930882 3.12592647"></polygon>
                        </g>
                    </g>
                </g>
            </g>
        </g>
    </g>
</svg>