<?xml version="1.0" encoding="UTF-8"?>
<svg width="21px" height="18px" viewBox="0 0 21 18" version="1.1" xmlns="http://www.w3.org/2000/svg" xmlns:xlink="http://www.w3.org/1999/xlink">
    <!-- Generator: Sketch 42 (36781) - http://www.bohemiancoding.com/sketch -->
    <title>ico</title>
    <desc>Created with Sketch.</desc>
    <defs></defs>
    <g id="Symbols" stroke="none" stroke-width="1" fill="none" fill-rule="evenodd">
        <g id="header" transform="translate(-1225.000000, -63.000000)">
            <g id="content">
                <g transform="translate(135.000000, 37.000000)">
                    <g id="right" transform="translate(526.000000, 2.000000)">
                        <g id="cart" transform="translate(562.000000, 19.000000)">
                            <g id="ico" transform="translate(0.000000, 2.000000)">
                                <rect id="Rectangle" x="0" y="0" width="25" height="25"></rect>
                                <path d="M8.46155206,17.7273134 L7.65388016,17.7273134 C7.43512095,17.7273134 7.24588915,17.6460448 7.08583114,17.4845821 C6.92603834,17.322403 6.84607564,17.1305821 6.84607564,16.9090299 C6.84607564,16.789791 6.89235588,16.6215672 6.98487215,16.404 C7.07734422,16.1867015 7.20142122,15.9332687 7.35705896,15.6433433 C7.51278511,15.3534179 7.59902459,15.1916418 7.61573322,15.1576119 L5.38208191,4.63629851 L2.80784872,4.63629851 C2.58913371,4.63629851 2.39981351,4.55538806 2.2398439,4.39343284 C2.0799627,4.23152239 2,4.03974627 2,3.81819403 C2,3.59664179 2.0799627,3.40477612 2.2398439,3.24286567 C2.3996809,3.08113433 2.5889569,3 2.80784872,3 L6.03858055,3 C6.17313359,3 6.29309975,3.02776119 6.39821379,3.08297015 C6.50341624,3.13853731 6.58753399,3.20440299 6.65052285,3.28132836 C6.71360012,3.35785075 6.76827887,3.46235821 6.81455911,3.59453731 C6.86092775,3.72662687 6.89231168,3.83964179 6.90924131,3.93308955 C6.92608255,4.0269403 6.94915636,4.15258209 6.97859536,4.31032836 C7.00803437,4.46798507 7.02695313,4.57656716 7.03548425,4.63616418 L22.1922397,4.63616418 C22.4110431,4.63616418 22.6002307,4.71716418 22.7601561,4.8791194 C22.9201699,5.04129851 22.9999116,5.23307463 23,5.45462687 L23,12.0001343 C23,12.204806 22.9328561,12.3858806 22.7982146,12.543403 C22.6636174,12.7012836 22.4910058,12.7925821 22.2809103,12.8183284 L9.10509931,14.3779254 C9.11349782,14.4376567 9.13232818,14.5293134 9.16181138,14.6525373 C9.19125039,14.7762985 9.21644593,14.889403 9.23753063,14.9914478 C9.25861532,15.0934925 9.26913556,15.1872985 9.26913556,15.2727761 C9.26913556,15.4091642 9.16817658,15.6815821 8.96617019,16.0907463 L20.5764538,16.0907463 C20.7952131,16.0907463 20.9845775,16.1719701 21.1443261,16.333791 C21.3043399,16.4956119 21.3842142,16.6874328 21.3842142,16.9090299 C21.3842142,17.1306269 21.3043399,17.3224478 21.1443261,17.4845821 C20.9845333,17.6460896 20.7951689,17.7273134 20.5764538,17.7273134 L19.7692682,17.7273134 C19.7693713,17.7273134 19.7694745,17.7273134 19.7695776,17.7273134 C20.2151851,17.7273134 20.5960799,17.8872537 20.9113336,18.206597 C21.2270735,18.5262537 21.3847888,18.9117761 21.3847888,19.3636567 C21.3847888,19.8155373 21.2268967,20.2010597 20.9113336,20.520403 C20.5960799,20.8400597 20.2151851,21 19.7695776,21 C19.323307,21 18.9424123,20.8400597 18.6271586,20.520403 C18.3119048,20.2010597 18.1537033,19.8155373 18.1537033,19.3636567 C18.1537033,18.9117761 18.3119048,18.5262537 18.6271586,18.206597 C18.9423394,17.8873275 19.323131,17.7273874 19.7692682,17.7273135 L8.46155206,17.7273134 C8.01550252,17.7273134 7.63474038,17.8872537 7.31926565,18.206597 C7.00387931,18.5262537 6.84603144,18.9117761 6.84603144,19.3636567 C6.84603144,19.8155373 7.0037025,20.2010597 7.31926565,20.520403 C7.63491719,20.8400597 8.01545832,21 8.46150786,21 C8.90729218,21 9.28805432,20.8400597 9.60348486,20.520403 C9.919048,20.2010597 10.0768959,19.8155373 10.0768959,19.3636567 C10.0768959,18.9117761 9.91918061,18.5262537 9.60348486,18.206597 C9.28802055,17.8872643 8.90731735,17.727324 8.46155206,17.7273134 Z" fill="#758793"></path>
                            </g>
                        </g>
                    </g>
                </g>
            </g>
        </g>
    </g>
</svg>