<?xml version="1.0" encoding="UTF-8"?>
<svg width="42px" height="42px" viewBox="0 0 42 42" version="1.1" xmlns="http://www.w3.org/2000/svg" xmlns:xlink="http://www.w3.org/1999/xlink">
    <!-- Generator: Sketch 42 (36781) - http://www.bohemiancoding.com/sketch -->
    <title>rub</title>
    <desc>Created with Sketch.</desc>
    <defs></defs>
    <g id="Page-1" stroke="none" stroke-width="1" fill="none" fill-rule="evenodd">
        <g id="g-scm---catalog" transform="translate(-537.000000, -569.000000)">
            <g id="filter-right" transform="translate(428.000000, 569.000000)">
                <g id="price" transform="translate(109.000000, 0.000000)">
                    <g id="rub">
                        <rect id="bg" fill-opacity="0.236979167" fill="#798B96" x="0" y="0" width="42" height="42"></rect>
                        <path d="M23.0452981,23.3109998 C24.5036585,23.3109998 25.6939302,22.8778823 26.6163428,22.0115354 C27.5387937,21.1449272 28,20.0262177 28,18.6555559 C28,17.2847821 27.5387937,16.1660725 26.6166109,15.2997629 C25.6939302,14.4332294 24.5037735,14 23.0452981,14 L17.1499483,14 C17.0479305,14 16.964033,14.0320538 16.8983708,14.0958254 C16.8329001,14.1597837 16.7999923,14.241392 16.7999923,14.3408743 L16.7999923,21.0421239 L14.3499559,21.0421239 C14.2478232,21.0421239 14.1640407,21.0757076 14.0983784,21.1431734 C14.0329077,21.2107886 14,21.2905311 14,21.3828863 L14,22.970312 C14,23.0699063 14.0327545,23.1514027 14.0983784,23.2154729 C14.1640407,23.2793192 14.2479381,23.3112237 14.3499559,23.3112237 L16.799954,23.3112237 L16.799954,24.5680368 L14.3499559,24.5680368 C14.2478232,24.5680368 14.1640407,24.6002025 14.0983784,24.6640861 C14.0329077,24.7277832 14,24.8095034 14,24.9089857 L14,26.2728189 C14,26.3721519 14.0327545,26.4539095 14.0983784,26.5177185 C14.1640407,26.5815648 14.2479381,26.6136186 14.3499559,26.6136186 L16.799954,26.6136186 L16.799954,28.6592003 C16.799954,28.7585334 16.8327468,28.840291 16.8983324,28.9040999 C16.964033,28.9679462 17.0479305,29 17.14991,29 L18.9765383,29 C19.0712773,29 19.1533359,28.9679462 19.2226375,28.9040999 C19.2918625,28.8402536 19.3265325,28.7585334 19.3265325,28.6592003 L19.3265325,26.6136186 L24.8501283,26.6136186 C24.9521461,26.6136186 25.0360819,26.5815648 25.1015909,26.5177185 C25.1670999,26.4538722 25.1998927,26.3721519 25.1998927,26.2728189 L25.1998927,24.9088365 C25.1998927,24.8095034 25.1671382,24.7277458 25.1015909,24.6636756 C25.0360436,24.5999413 24.9521461,24.5680368 24.8501283,24.5680368 L19.3265708,24.5680368 L19.3265708,23.3109625 L23.0452981,23.3109625 L23.0452981,23.3109998 Z M19.3265708,16.2690252 L22.8263601,16.2690252 C23.5993279,16.2690252 24.2226977,16.4892221 24.6967377,16.9294668 C25.1706627,17.3698981 25.4078359,17.9451118 25.4078359,18.6554439 C25.4078359,19.365776 25.1709309,19.9409897 24.6970059,20.3812344 C24.2229276,20.8215538 23.5992896,21.0419 22.82659,21.0419 L19.3265708,21.0419 L19.3265708,16.2690252 Z" id="Shape" fill="#93A4AF"></path>
                    </g>
                </g>
            </g>
        </g>
    </g>
</svg>