<?xml version="1.0" encoding="UTF-8"?>
<svg width="1440px" height="63px" viewBox="0 0 1440 63" version="1.1" xmlns="http://www.w3.org/2000/svg" xmlns:xlink="http://www.w3.org/1999/xlink">
    <!-- Generator: Sketch 42 (36781) - http://www.bohemiancoding.com/sketch -->
    <title>arrows</title>
    <desc>Created with Sketch.</desc>
    <defs></defs>
    <g id="Symbols" stroke="none" stroke-width="1" fill="none" fill-rule="evenodd">
        <g id="top-slider" transform="translate(-30.000000, -153.000000)">
            <g id="slider">
                <g id="slider-arrows" transform="translate(30.000000, 153.000000)">
                    <g id="arrows">
                        <g id="right" transform="translate(1408.500000, 31.500000) rotate(-90.000000) translate(-1408.500000, -31.500000) translate(1377.000000, 0.000000)">
                            <rect id="bg" fill-opacity="0.54" fill="#000000" x="0" y="0" width="63" height="63"></rect>
                            <polygon id="Path" fill="#FFFFFF" transform="translate(31.614000, 31.097900) rotate(90.000000) translate(-31.614000, -31.097900) " points="26.1727407 44.1958004 24 42.0302177 34.8967323 31.0979002 24 20.1655828 26.1727407 18 39.2280001 31.0979002"></polygon>
                        </g>
                        <g id="left" transform="translate(31.500000, 31.500000) rotate(90.000000) translate(-31.500000, -31.500000) ">
                            <rect id="bg" fill-opacity="0.54" fill="#000000" x="3.55271368e-15" y="0" width="63" height="63"></rect>
                            <polygon id="Path" fill="#FFFFFF" transform="translate(31.614000, 31.097900) rotate(90.000000) translate(-31.614000, -31.097900) " points="26.1727407 44.1958004 24 42.0302177 34.8967323 31.0979002 24 20.1655828 26.1727407 18 39.2280001 31.0979002"></polygon>
                        </g>
                    </g>
                </g>
            </g>
        </g>
    </g>
</svg>