<?xml version="1.0" encoding="UTF-8"?>
<svg width="42px" height="42px" viewBox="0 0 42 42" version="1.1" xmlns="http://www.w3.org/2000/svg" xmlns:xlink="http://www.w3.org/1999/xlink">
    <!-- Generator: Sketch 42 (36781) - http://www.bohemiancoding.com/sketch -->
    <title>btn</title>
    <desc>Created with Sketch.</desc>
    <defs></defs>
    <g id="Symbols" stroke="none" stroke-width="1" fill="none" fill-rule="evenodd">
        <g id="btn-cart">
            <g id="btn">
                <rect fill="#C54051" x="0" y="0" width="42" height="42"></rect>
                <path d="M17.5384732,26.2727612 L16.846183,26.2727612 C16.6586751,26.2727612 16.4964764,26.2050373 16.3592838,26.0704851 C16.2223186,25.9353358 16.1537791,25.7754851 16.1537791,25.5908582 C16.1537791,25.4914925 16.1934479,25.351306 16.2727476,25.17 C16.3520093,24.9889179 16.458361,24.7777239 16.5917648,24.5361194 C16.7252444,24.2945149 16.7991639,24.1597015 16.8134856,24.1313433 L14.8989273,15.3635821 L12.6924418,15.3635821 C12.5049718,15.3635821 12.3426973,15.2961567 12.2055805,15.161194 C12.0685395,15.0262687 12,14.8664552 12,14.6818284 C12,14.4972015 12.0685395,14.3373134 12.2055805,14.2023881 C12.3425836,14.0676119 12.5048202,14 12.6924418,14 L15.4616405,14 C15.5769717,14 15.6797998,14.0231343 15.7698975,14.0691418 C15.8600711,14.1154478 15.932172,14.1703358 15.9861624,14.2344403 C16.0402287,14.298209 16.0870962,14.3852985 16.126765,14.4954478 C16.1665095,14.6055224 16.19341,14.6997015 16.2079211,14.7775746 C16.2223565,14.8557836 16.242134,14.9604851 16.2673675,15.0919403 C16.2926009,15.2233209 16.308817,15.313806 16.3161294,15.3634701 L29.307634,15.3634701 C29.4951798,15.3634701 29.6573406,15.4309701 29.7944195,15.5659328 C29.9315742,15.7010821 29.9999242,15.8608955 30,16.0455224 L30,21.5001119 C30,21.6706716 29.9424481,21.8215672 29.8270411,21.9528358 C29.711672,22.084403 29.5637193,22.1604851 29.3836374,22.1819403 L18.0900851,23.4816045 C18.0972838,23.5313806 18.1134242,23.6077612 18.1386955,23.7104478 C18.1639289,23.8135821 18.1855251,23.9078358 18.2035977,23.9928731 C18.2216703,24.0779104 18.2306876,24.1560821 18.2306876,24.2273134 C18.2306876,24.3409701 18.1441514,24.5679851 17.971003,24.9089552 L27.9226747,24.9089552 C28.1101826,24.9089552 28.272495,24.9766418 28.4094223,25.1114925 C28.546577,25.2463433 28.6150407,25.406194 28.6150407,25.5908582 C28.6150407,25.7755224 28.546577,25.9353731 28.4094223,26.0704851 C28.2724571,26.2050746 28.1101447,26.2727612 27.9226747,26.2727612 L27.2308013,26.2727612 C27.2308897,26.2727612 27.2309781,26.2727612 27.2310665,26.2727612 C27.6130158,26.2727612 27.939497,26.4060448 28.2097145,26.6721642 C28.4803487,26.9385448 28.6155333,27.2598134 28.6155333,27.6363806 C28.6155333,28.0129478 28.4801972,28.3342164 28.2097145,28.6003358 C27.939497,28.8667164 27.6130158,29 27.2310665,29 C26.8485489,29 26.5220677,28.8667164 26.2518502,28.6003358 C25.9816327,28.3342164 25.8460314,28.0129478 25.8460314,27.6363806 C25.8460314,27.2598134 25.9816327,26.9385448 26.2518502,26.6721642 C26.5220052,26.4061063 26.848398,26.2728228 27.2308013,26.2727612 L17.5384732,26.2727612 C17.156145,26.2727612 16.8297775,26.4060448 16.5593706,26.6721642 C16.2890394,26.9385448 16.1537412,27.2598134 16.1537412,27.6363806 C16.1537412,28.0129478 16.2888879,28.3342164 16.5593706,28.6003358 C16.829929,28.8667164 17.1561071,29 17.5384353,29 C17.9205362,29 18.2469037,28.8667164 18.5172727,28.6003358 C18.7877554,28.3342164 18.9230536,28.0129478 18.9230536,27.6363806 C18.9230536,27.2598134 18.7878691,26.9385448 18.5172727,26.6721642 C18.2468748,26.4060536 17.9205577,26.27277 17.5384732,26.2727612 Z" id="ico" fill="#FFFFFF"></path>
            </g>
        </g>
    </g>
</svg>