<?xml version="1.0" encoding="UTF-8"?>
<svg width="25px" height="25px" viewBox="0 0 25 25" version="1.1" xmlns="http://www.w3.org/2000/svg" xmlns:xlink="http://www.w3.org/1999/xlink">
    <!-- Generator: Sketch 42 (36781) - http://www.bohemiancoding.com/sketch -->
    <title>close</title>
    <desc>Created with Sketch.</desc>
    <defs></defs>
    <g id="Page-1" stroke="none" stroke-width="1" fill="none" fill-rule="evenodd">
        <g id="g-scm---callback" transform="translate(-825.000000, -355.000000)" fill-rule="nonzero" fill="#263A48">
            <g id="overlay">
                <g id="form" transform="translate(558.000000, 339.000000)">
                    <g id="header">
                        <g id="Group" transform="translate(32.000000, 12.000000)">
                            <path d="M258.324011,10.2254864 C257.20619,8.31046081 255.689938,6.79420886 253.774856,5.6764455 C251.859431,4.55873916 249.768478,4 247.500399,4 C245.232549,4 243.140968,4.55873916 241.225885,5.6764455 C239.310689,6.79403784 237.794437,8.31028979 236.676617,10.2254864 C235.558739,12.140797 235,14.2323776 235,16.500057 C235,18.7678505 235.55891,20.859089 236.676446,22.7745136 C237.794209,24.6895392 239.310461,26.2057911 241.225657,27.3236685 C243.140968,28.4413179 245.232378,29.000114 247.500171,29.000114 C249.767964,29.000114 251.859602,28.4413179 253.774799,27.3236685 C255.689881,26.2061902 257.206076,24.6895392 258.323783,22.7745136 C259.441318,20.85926 260,18.7677364 260,16.500057 C260.000057,14.2321495 259.441318,12.140512 258.324011,10.2254864 Z M253.392101,19.4457941 C253.598301,19.6517654 253.701543,19.8964454 253.701543,20.1785799 C253.701543,20.4712039 253.598301,20.7209576 253.392101,20.9269289 L251.927385,22.3921014 C251.721357,22.5980727 251.47166,22.7010868 251.17858,22.7010868 C250.896502,22.7010868 250.65205,22.5980727 250.446193,22.3921014 L247.500228,19.4457941 L244.554149,22.3921014 C244.348007,22.5980727 244.103897,22.7010868 243.821762,22.7010868 C243.528739,22.7010868 243.279213,22.5980727 243.073014,22.3921014 L241.60807,20.9269289 C241.401927,20.7209576 241.298856,20.4712039 241.298856,20.1785799 C241.298856,19.8965024 241.401984,19.6518224 241.60807,19.4457941 L244.554149,16.5 L241.60807,13.5539208 C241.401927,13.3480065 241.298856,13.1036686 241.298856,12.8215341 C241.298856,12.528511 241.401984,12.2789853 241.60807,12.072786 L243.073014,10.6080697 C243.279213,10.4019273 243.528739,10.2988562 243.821762,10.2988562 C244.103897,10.2988562 244.348007,10.4019843 244.554149,10.6080697 L247.500228,13.5539208 L250.446193,10.6080697 C250.651993,10.4019273 250.896445,10.2988562 251.17858,10.2988562 C251.47166,10.2988562 251.721357,10.4019843 251.927385,10.6080697 L253.392101,12.072786 C253.598301,12.2789853 253.701543,12.528511 253.701543,12.8215341 C253.701543,13.1036116 253.598301,13.3480065 253.392101,13.5539208 L250.446193,16.5 L253.392101,19.4457941 Z" id="close"></path>
                        </g>
                    </g>
                </g>
            </g>
        </g>
    </g>
</svg>