<?xml version="1.0" encoding="UTF-8"?>
<svg width="250px" height="75px" viewBox="0 0 250 75" version="1.1" xmlns="http://www.w3.org/2000/svg" xmlns:xlink="http://www.w3.org/1999/xlink">
    <!-- Generator: Sketch 42 (36781) - http://www.bohemiancoding.com/sketch -->
    <title>GSCM-LOGO</title>
    <desc>Created with Sketch.</desc>
    <defs>
        <polygon id="path-1" points="36.8412472 74.0665584 0.0324926479 74.0665584 0.0324926479 0.0217842819 73.6500018 0.0217842819 73.6500018 74.0665584"></polygon>
    </defs>
    <g id="Page-1" stroke="none" stroke-width="1" fill="none" fill-rule="evenodd">
        <g id="GSCM-LOGO">
            <g id="Group-3">
                <mask id="mask-2" fill="white">
                    <use xlink:href="#path-1"></use>
                </mask>
                <g id="Clip-2"></g>
                <path d="M65.3210531,37.5234256 L17.5839379,37.5234256 L17.5839379,37.2783524 C17.5839379,26.7020835 26.1018856,18.1354147 36.6186726,18.1354147 C43.7080268,18.1354147 49.8924608,22.0293551 53.1688028,27.8021898 L63.7337872,27.8021898 C59.8406265,16.5179317 49.1722071,8.41417888 36.6186726,8.41417888 C20.7682174,8.41417888 7.91683365,21.3377041 7.91683365,37.2783524 C7.91683365,37.3600434 7.91683365,37.4417345 7.92279064,37.5234256 C7.9444524,40.9381118 8.56181271,44.2112001 9.67685208,47.2392153 C13.706482,58.2729541 24.2498046,66.1425259 36.6186726,66.1425259 C52.3835638,66.1425259 65.1910825,53.3497064 65.3210531,37.5234256 Z M0,74.0665584 L73.6500018,74.0665584 L73.6500018,0 L0,0 L0,74.0665584 Z M38.243305,47.2392153 L52.8812428,47.2392153 C49.5404571,52.7506386 43.5076555,56.4267362 36.6186726,56.4267362 C29.7302312,56.4267362 23.6979712,52.7506386 20.3620593,47.2392153 L38.243305,47.2392153 L38.243305,47.2392153 Z" id="Fill-1" fill="#183751" mask="url(#mask-2)"></path>
            </g>
            <path d="M16.0026291,41.6569931 L13.4573717,41.6569931 C13.1210727,41.6569931 12.8616731,41.5970863 12.7907308,41.1559546 C12.6829635,40.4643036 13.0073485,40.2028922 13.4459992,40.2028922 L15.7908853,40.2028922 C16.2836905,40.2028922 16.4624,40.3608283 16.5057236,40.6603622 C16.511139,40.6875925 16.511139,40.7910678 16.511139,40.8618668 L17.9083229,40.8618668 C17.903449,40.6712543 17.8926181,40.49698 17.8709563,40.3335979 C17.719324,39.331521 17.1127945,38.8631589 15.8943202,38.8631589 L13.5272308,38.8631589 C11.9681253,38.8631589 11.3664698,39.4349963 11.3827161,40.8618668 C11.3881315,41.1450624 11.399504,41.4010277 11.4314551,41.6134245 C11.6101646,42.7570993 12.2334819,42.9912803 13.5710959,42.9912803 L15.6397945,42.9912803 C16.2788166,42.9912803 16.4624,43.1764467 16.517096,43.508657 C16.6308203,44.2547687 16.3703375,44.5978711 15.6885335,44.5978711 L13.3539367,44.5978711 C12.9591511,44.5978711 12.7203301,44.3037833 12.6613018,43.9280044 L11.2641179,43.9280044 C11.2695334,44.1512933 11.2857797,44.3636901 11.3128569,44.5488565 C11.4531168,45.4855806 11.9784146,45.9321584 13.2131353,45.9321584 L16.0297063,45.9321584 C17.4101023,45.9321584 17.9413571,45.284076 17.9299846,43.7864066 C17.9299846,43.4596424 17.903449,43.1818928 17.8649993,42.9477118 C17.6862898,41.7713605 17.0803019,41.6569931 16.0026291,41.6569931 Z M23.5680006,45.9321584 C25.2738646,45.9321584 25.6583609,45.3929974 25.6583609,43.5685638 L25.6583609,43.4923188 L24.2557616,43.4923188 C24.2665925,44.3473519 23.9741587,44.5270722 23.1450546,44.5270722 L21.3530851,44.5270722 C20.6978167,44.5270722 20.3566439,44.3854744 20.2586244,43.7319459 C20.2369626,43.5903481 20.2266733,43.426966 20.2212578,43.2472456 L20.2050115,41.4936109 C20.1941806,40.3826126 20.3940104,40.1920001 21.3260079,40.1920001 L23.1179774,40.1920001 C23.8219848,40.1920001 24.1360804,40.4261811 24.2227274,40.9816803 C24.2340999,41.0633714 24.2395153,41.1995231 24.2395153,41.2485378 L25.6307422,41.2485378 C25.6307422,40.9762342 25.6150374,40.7311611 25.5765878,40.5078722 C25.3713425,39.1409085 24.5590263,38.7814678 23.3725031,38.7814678 L21.0552358,38.7814678 C19.3385409,38.7814678 18.7969968,39.3641974 18.8127016,41.4337042 L18.824074,43.4378581 C18.824074,43.7864066 18.8457358,44.0913866 18.8890593,44.358244 C19.0677688,45.5345952 19.6526365,45.9321584 20.9734626,45.9321584 L23.5680006,45.9321584 Z M28.0303242,45.9321584 L28.0303242,40.2736912 L28.2144492,40.2736912 L30.261486,45.9321584 L32.2435376,45.9321584 L34.1979703,40.2736912 L34.3880523,40.2736912 L34.3880523,45.9321584 L35.8280182,45.9321584 L35.8280182,38.8631589 L33.169578,38.8631589 L31.279589,44.5270722 L31.1978158,44.5270722 L29.2157643,38.8631589 L26.6764639,38.8631589 L26.6764639,45.9321584 L28.0303242,45.9321584 Z M38.4821259,47.2392153 L52.8812428,47.2392153 C49.5404571,52.7506386 43.5076555,56.4267362 36.6186726,56.4267362 C29.7302312,56.4267362 23.6979712,52.7506386 20.3620593,47.2392153 L9.67685208,47.2392153 C13.706482,58.2729541 24.2498046,66.1425259 36.6186726,66.1425259 C52.3835638,66.1425259 65.1910825,53.3497064 65.3210531,37.5234256 L38.4821259,37.5234256 L38.4821259,47.2392153 Z M17.5839379,37.5234256 L7.92279064,37.5234256 C7.91683365,37.4417345 7.91683365,37.3600434 7.91683365,37.2783524 C7.91683365,21.3377041 20.7682174,8.41417888 36.6186726,8.41417888 C49.1722071,8.41417888 59.8406265,16.5179317 63.7337872,27.8021898 L53.1688028,27.8021898 C49.8924608,22.0293551 43.7080268,18.1354147 36.6186726,18.1354147 C26.1018856,18.1354147 17.5839379,26.7020835 17.5839379,37.2783524 L17.5839379,37.5234256 L17.5839379,37.5234256 Z" id="Fill-4" fill="#FFFFFF"></path>
            <path d="M18.8890593,44.358244 C18.8457358,44.0913866 18.824074,43.7864066 18.824074,43.4378581 L18.8127016,41.4337042 C18.7969968,39.3641974 19.3385409,38.7814678 21.0552358,38.7814678 L23.3725031,38.7814678 C24.5590263,38.7814678 25.3713425,39.1409085 25.5765878,40.5078722 C25.6150374,40.7311611 25.6307422,40.9762342 25.6307422,41.2485378 L24.2395153,41.2485378 C24.2395153,41.1995231 24.2340999,41.0633714 24.2227274,40.9816803 C24.1360804,40.4261811 23.8219848,40.1920001 23.1179774,40.1920001 L21.3260079,40.1920001 C20.3940104,40.1920001 20.1941806,40.3826126 20.2050115,41.4936109 L20.2212578,43.2472456 C20.2266733,43.426966 20.2369626,43.5903481 20.2586244,43.7319459 C20.3566439,44.3854744 20.6978167,44.5270722 21.3530851,44.5270722 L23.1450546,44.5270722 C23.9741587,44.5270722 24.2665925,44.3473519 24.2557616,43.4923188 L25.6583609,43.4923188 L25.6583609,43.5685638 C25.6583609,45.3929974 25.2738646,45.9321584 23.5680006,45.9321584 L20.9734626,45.9321584 C19.6526365,45.9321584 19.0677688,45.5345952 18.8890593,44.358244 Z M16.0297063,45.9321584 L13.2131353,45.9321584 C11.9784146,45.9321584 11.4531168,45.4855806 11.3128569,44.5488565 C11.2857797,44.3636901 11.2695334,44.1512933 11.2641179,43.9280044 L12.6613018,43.9280044 C12.7203301,44.3037833 12.9591511,44.5978711 13.3539367,44.5978711 L15.6885335,44.5978711 C16.3703375,44.5978711 16.6308203,44.2547687 16.517096,43.508657 C16.4624,43.1764467 16.2788166,42.9912803 15.6397945,42.9912803 L13.5710959,42.9912803 C12.2334819,42.9912803 11.6101646,42.7570993 11.4314551,41.6134245 C11.399504,41.4010277 11.3881315,41.1450624 11.3827161,40.8618668 C11.3664698,39.4349963 11.9681253,38.8631589 13.5272308,38.8631589 L15.8943202,38.8631589 C17.1127945,38.8631589 17.719324,39.331521 17.8709563,40.3335979 C17.8926181,40.49698 17.903449,40.6712543 17.9083229,40.8618668 L16.511139,40.8618668 C16.511139,40.7910678 16.511139,40.6875925 16.5057236,40.6603622 C16.4624,40.3608283 16.2836905,40.2028922 15.7908853,40.2028922 L13.4459992,40.2028922 C13.0073485,40.2028922 12.6829635,40.4643036 12.7907308,41.1559546 C12.8616731,41.5970863 13.1210727,41.6569931 13.4573717,41.6569931 L16.0026291,41.6569931 C17.0803019,41.6569931 17.6862898,41.7713605 17.8649993,42.9477118 C17.903449,43.1818928 17.9299846,43.4596424 17.9299846,43.7864066 C17.9413571,45.284076 17.4101023,45.9321584 16.0297063,45.9321584 Z M26.6764639,38.8631589 L29.2157643,38.8631589 L31.1978158,44.5270722 L31.279589,44.5270722 L33.169578,38.8631589 L35.8280182,38.8631589 L35.8280182,45.9321584 L34.3880523,45.9321584 L34.3880523,40.2736912 L34.1979703,40.2736912 L32.2435376,45.9321584 L30.261486,45.9321584 L28.2144492,40.2736912 L28.0303242,40.2736912 L28.0303242,45.9321584 L26.6764639,45.9321584 L26.6764639,38.8631589 Z M38.4821259,47.2392153 L38.4821259,37.5234256 L7.92279064,37.5234256 C7.9444524,40.9381118 8.56181271,44.2112001 9.67685208,47.2392153 L38.4821259,47.2392153 L38.4821259,47.2392153 Z" id="Fill-5" fill="#B2332B"></path>
            <path d="M94.8101333,8.88863636 C95.2544022,9.06590998 95.6850646,9.34090723 96.1021333,9.71363636 L95.3949333,10.5045455 C95.0413316,10.2227259 94.694535,10.0159097 94.3545333,9.88409091 C94.0145316,9.75227207 93.6496019,9.68636364 93.2597333,9.68636364 C92.7701309,9.68636364 92.3666683,9.79999886 92.0493333,10.0272727 C91.7319984,10.2545466 91.5733333,10.5863615 91.5733333,11.0227273 C91.5733333,11.2954559 91.6277328,11.5249991 91.7365333,11.7113636 C91.8453339,11.8977282 92.0470652,12.068181 92.3417333,12.2227273 C92.6364015,12.3772735 93.0647972,12.5409082 93.6269333,12.7136364 C94.2162696,12.8954555 94.7058647,13.090908 95.0957333,13.3 C95.4856019,13.509092 95.8006655,13.7977254 96.0409333,14.1659091 C96.2812012,14.5340927 96.4013333,14.9999972 96.4013333,15.5636364 C96.4013333,16.1090936 96.2676013,16.590907 96.0001333,17.0090909 C95.7326653,17.4272748 95.3473358,17.7545443 94.8441333,17.9909091 C94.3409308,18.2272739 93.7448034,18.3454545 93.0557333,18.3454545 C91.7591935,18.3454545 90.6984041,17.9409131 89.8733333,17.1318182 L90.5805333,16.3409091 C90.9613352,16.6500015 91.3466647,16.8840901 91.7365333,17.0431818 C92.1264019,17.2022735 92.5615976,17.2818182 93.0421333,17.2818182 C93.6224029,17.2818182 94.1029314,17.1386378 94.4837333,16.8522727 C94.8645352,16.5659077 95.0549333,16.1500027 95.0549333,15.6045455 C95.0549333,15.295453 94.9960006,15.0386374 94.8781333,14.8340909 C94.7602661,14.6295444 94.5585348,14.4454554 94.2729333,14.2818182 C93.9873319,14.118181 93.5725361,13.9545463 93.0285333,13.7909091 C92.0674619,13.4999985 91.3648022,13.150002 90.9205333,12.7409091 C90.4762644,12.3318161 90.2541333,11.7772762 90.2541333,11.0772727 C90.2541333,10.6045431 90.3787988,10.18182 90.6281333,9.80909091 C90.8774679,9.43636177 91.2265311,9.14545559 91.6753333,8.93636364 C92.1241356,8.72727168 92.6341305,8.62272727 93.2053333,8.62272727 C93.8309365,8.62272727 94.3658644,8.71136275 94.8101333,8.88863636 Z M104.724533,15.1681818 C104.724533,15.7954577 104.595335,16.3477249 104.336933,16.825 C104.078532,17.3022751 103.702269,17.6749987 103.208133,17.9431818 C102.713998,18.211365 102.122403,18.3454545 101.433333,18.3454545 C100.390661,18.3454545 99.5860028,18.0568211 99.0193333,17.4795455 C98.4526638,16.9022698 98.1693333,16.131823 98.1693333,15.1681818 L98.1693333,8.78636364 L99.4613333,8.78636364 L99.4613333,15.0727273 C99.4613333,15.8000036 99.6245317,16.3454527 99.9509333,16.7090909 C100.277335,17.0727291 100.771463,17.2545455 101.433333,17.2545455 C102.10427,17.2545455 102.602932,17.0750018 102.929333,16.7159091 C103.255735,16.3568164 103.418933,15.8090946 103.418933,15.0727273 L103.418933,8.78636364 L104.724533,8.78636364 L104.724533,15.1681818 Z M112.462933,9.51590909 C113.097603,10.0022752 113.414933,10.7272679 113.414933,11.6909091 C113.414933,12.718187 113.084003,13.4818157 112.422133,13.9818182 C111.760263,14.4818207 110.880805,14.7318182 109.783733,14.7318182 L108.600533,14.7318182 L108.600533,18.1818182 L107.308533,18.1818182 L107.308533,8.78636364 L109.770133,8.78636364 C110.930672,8.78636364 111.828263,9.02954302 112.462933,9.51590909 Z M111.449733,13.2727273 C111.844135,12.9818167 112.041333,12.4590947 112.041333,11.7045455 C112.041333,11.0318148 111.844135,10.545456 111.449733,10.2454545 C111.055331,9.94545305 110.490937,9.79545455 109.756533,9.79545455 L108.600533,9.79545455 L108.600533,13.7090909 L109.729333,13.7090909 C110.48187,13.7090909 111.055331,13.5636378 111.449733,13.2727273 Z M120.364533,9.51590909 C120.999203,10.0022752 121.316533,10.7272679 121.316533,11.6909091 C121.316533,12.718187 120.985603,13.4818157 120.323733,13.9818182 C119.661863,14.4818207 118.782405,14.7318182 117.685333,14.7318182 L116.502133,14.7318182 L116.502133,18.1818182 L115.210133,18.1818182 L115.210133,8.78636364 L117.671733,8.78636364 C118.832272,8.78636364 119.729863,9.02954302 120.364533,9.51590909 Z M119.351333,13.2727273 C119.745735,12.9818167 119.942933,12.4590947 119.942933,11.7045455 C119.942933,11.0318148 119.745735,10.545456 119.351333,10.2454545 C118.956931,9.94545305 118.392537,9.79545455 117.658133,9.79545455 L116.502133,9.79545455 L116.502133,13.7090909 L117.630933,13.7090909 C118.38347,13.7090909 118.956931,13.5636378 119.351333,13.2727273 Z M124.403733,8.78636364 L124.403733,17.05 L128.252533,17.05 L128.102933,18.1818182 L123.111733,18.1818182 L123.111733,8.78636364 L124.403733,8.78636364 Z M134.712533,8.78636364 L131.693333,14.5681818 L131.693333,18.1818182 L130.387733,18.1818182 L130.387733,14.5818182 L127.368533,8.78636364 L128.796533,8.78636364 L131.081333,13.4363636 L133.366133,8.78636364 L134.712533,8.78636364 Z M144.443333,8.84090909 C144.828669,8.98636436 145.220798,9.22272564 145.619733,9.55 L144.912533,10.3818182 C144.34133,9.9181795 143.738403,9.68636364 143.103733,9.68636364 C142.323996,9.68636364 141.696136,9.98636064 141.220133,10.5863636 C140.744131,11.1863666 140.506133,12.1499934 140.506133,13.4772727 C140.506133,14.7681883 140.741864,15.7204515 141.213333,16.3340909 C141.684802,16.9477303 142.310396,17.2545455 143.090133,17.2545455 C143.489069,17.2545455 143.838132,17.1863643 144.137333,17.05 C144.436535,16.9136357 144.753865,16.7227285 145.089333,16.4772727 L145.728533,17.2954545 C145.438399,17.595456 145.066669,17.8454535 144.613333,18.0454545 C144.159998,18.2454555 143.63867,18.3454545 143.049333,18.3454545 C142.28773,18.3454545 141.610003,18.1568201 141.016133,17.7795455 C140.422264,17.4022708 139.959868,16.8477309 139.628933,16.1159091 C139.297998,15.3840873 139.132533,14.5045506 139.132533,13.4772727 C139.132533,12.4499949 139.304798,11.5704582 139.649333,10.8386364 C139.993868,10.1068145 140.460797,9.55454732 141.050133,9.18181818 C141.63947,8.80908905 142.296796,8.62272727 143.022133,8.62272727 C143.584269,8.62272727 144.057998,8.69545382 144.443333,8.84090909 Z M152.596533,18.1818182 L152.596533,13.7772727 L148.652533,13.7772727 L148.652533,18.1818182 L147.360533,18.1818182 L147.360533,8.78636364 L148.652533,8.78636364 L148.652533,12.7136364 L152.596533,12.7136364 L152.596533,8.78636364 L153.888533,8.78636364 L153.888533,18.1818182 L152.596533,18.1818182 Z M161.599733,18.1818182 L160.892533,15.8227273 L157.342933,15.8227273 L156.635733,18.1818182 L155.330133,18.1818182 L158.335733,8.78636364 L159.967733,8.78636364 L162.959733,18.1818182 L161.599733,18.1818182 Z M157.655733,14.7727273 L160.579733,14.7727273 L159.124533,9.86363636 L157.655733,14.7727273 Z M165.693333,8.78636364 L165.693333,18.1818182 L164.401333,18.1818182 L164.401333,8.78636364 L165.693333,8.78636364 Z M174.982133,18.1818182 L173.254933,18.1818182 L169.446933,10.2045455 C169.501334,10.8318213 169.5444,11.411361 169.576133,11.9431818 C169.607867,12.4750027 169.623733,13.118178 169.623733,13.8727273 L169.623733,18.1818182 L168.413333,18.1818182 L168.413333,8.78636364 L170.099733,8.78636364 L173.948533,16.7772727 C173.921333,16.5409079 173.885067,16.1272757 173.839733,15.5363636 C173.7944,14.9454516 173.771733,14.4045479 173.771733,13.9136364 L173.771733,8.78636364 L174.982133,8.78636364 L174.982133,18.1818182 Z M99.2709333,34.0909091 L98.0197333,34.0909091 L97.6933333,29.85 C97.5573327,28.1863553 97.4802668,26.9090954 97.4621333,26.0181818 L95.4357333,33.0272727 L94.2253333,33.0272727 L92.0901333,26.0045455 C92.0901333,27.1409148 92.0312006,28.454538 91.9133333,29.9454545 L91.6005333,34.0909091 L90.3765333,34.0909091 L91.1517333,24.6954545 L92.8925333,24.6954545 L94.8645333,31.5272727 L96.7413333,24.6954545 L98.4957333,24.6954545 L99.2709333,34.0909091 Z M106.465333,34.0909091 L105.758133,31.7318182 L102.208533,31.7318182 L101.501333,34.0909091 L100.195733,34.0909091 L103.201333,24.6954545 L104.833333,24.6954545 L107.825333,34.0909091 L106.465333,34.0909091 Z M102.521333,30.6818182 L105.445333,30.6818182 L103.990133,25.7727273 L102.521333,30.6818182 Z M115.835733,34.0909091 L114.108533,34.0909091 L110.300533,26.1136364 C110.354934,26.7409122 110.398,27.3204519 110.429733,27.8522727 C110.461467,28.3840936 110.477333,29.027269 110.477333,29.7818182 L110.477333,34.0909091 L109.266933,34.0909091 L109.266933,24.6954545 L110.953333,24.6954545 L114.802133,32.6863636 C114.774933,32.4499988 114.738667,32.0363666 114.693333,31.4454545 C114.648,30.8545425 114.625333,30.3136388 114.625333,29.8227273 L114.625333,24.6954545 L115.835733,24.6954545 L115.835733,34.0909091 Z M123.546933,34.0909091 L122.839733,31.7318182 L119.290133,31.7318182 L118.582933,34.0909091 L117.277333,34.0909091 L120.282933,24.6954545 L121.914933,24.6954545 L124.906933,34.0909091 L123.546933,34.0909091 Z M119.602933,30.6818182 L122.526933,30.6818182 L121.071733,25.7727273 L119.602933,30.6818182 Z M131.196933,24.7840909 C131.627602,24.9522736 132.055998,25.2136346 132.482133,25.5681818 L131.720533,26.3590909 C131.385065,26.0863623 131.063202,25.8909097 130.754933,25.7727273 C130.446665,25.6545449 130.084002,25.5954545 129.666933,25.5954545 C129.186398,25.5954545 128.744402,25.7249987 128.340933,25.9840909 C127.937465,26.2431831 127.608801,26.6568153 127.354933,27.225 C127.101065,27.7931847 126.974133,28.513632 126.974133,29.3863636 C126.974133,30.704552 127.189465,31.6681788 127.620133,32.2772727 C128.050802,32.8863667 128.687729,33.1909091 129.530933,33.1909091 C130.220003,33.1909091 130.813864,33.0500014 131.312533,32.7681818 L131.312533,29.9318182 L129.653333,29.9318182 L129.503733,28.8818182 L132.590933,28.8818182 L132.590933,33.4227273 C131.620795,33.9772755 130.600805,34.2545455 129.530933,34.2545455 C128.297861,34.2545455 127.334537,33.8409132 126.640933,33.0136364 C125.94733,32.1863595 125.600533,30.9772807 125.600533,29.3863636 C125.600533,28.3681767 125.784131,27.4931855 126.151333,26.7613636 C126.518535,26.0295418 127.012664,25.4750019 127.633733,25.0977273 C128.254803,24.7204527 128.93253,24.5318182 129.666933,24.5318182 C130.25627,24.5318182 130.766265,24.6159082 131.196933,24.7840909 Z M139.866933,24.6954545 L139.717333,25.7318182 L136.086133,25.7318182 L136.086133,28.8 L139.241333,28.8 L139.241333,29.8363636 L136.086133,29.8363636 L136.086133,33.0545455 L139.975733,33.0545455 L139.975733,34.0909091 L134.794133,34.0909091 L134.794133,24.6954545 L139.866933,24.6954545 Z M150.447733,34.0909091 L149.196533,34.0909091 L148.870133,29.85 C148.734133,28.1863553 148.657067,26.9090954 148.638933,26.0181818 L146.612533,33.0272727 L145.402133,33.0272727 L143.266933,26.0045455 C143.266933,27.1409148 143.208001,28.454538 143.090133,29.9454545 L142.777333,34.0909091 L141.553333,34.0909091 L142.328533,24.6954545 L144.069333,24.6954545 L146.041333,31.5272727 L147.918133,24.6954545 L149.672533,24.6954545 L150.447733,34.0909091 Z M157.723733,24.6954545 L157.574133,25.7318182 L153.942933,25.7318182 L153.942933,28.8 L157.098133,28.8 L157.098133,29.8363636 L153.942933,29.8363636 L153.942933,33.0545455 L157.832533,33.0545455 L157.832533,34.0909091 L152.650933,34.0909091 L152.650933,24.6954545 L157.723733,24.6954545 Z M166.495733,34.0909091 L164.768533,34.0909091 L160.960533,26.1136364 C161.014934,26.7409122 161.058,27.3204519 161.089733,27.8522727 C161.121467,28.3840936 161.137333,29.027269 161.137333,29.7818182 L161.137333,34.0909091 L159.926933,34.0909091 L159.926933,24.6954545 L161.613333,24.6954545 L165.462133,32.6863636 C165.434933,32.4499988 165.398667,32.0363666 165.353333,31.4454545 C165.308,30.8545425 165.285333,30.3136388 165.285333,29.8227273 L165.285333,24.6954545 L166.495733,24.6954545 L166.495733,34.0909091 Z M174.750933,24.6954545 L174.614933,25.8 L172.017333,25.8 L172.017333,34.0909091 L170.725333,34.0909091 L170.725333,25.8 L168.059733,25.8 L168.059733,24.6954545 L174.750933,24.6954545 Z M97.3533333,40.6045455 L97.3533333,50 L96.0613333,50 L96.0613333,41.7090909 L92.1853333,41.7090909 L92.1853333,50 L90.8933333,50 L90.8933333,40.6045455 L97.3533333,40.6045455 Z M105.227733,41.3340909 C105.862403,41.820457 106.179733,42.5454497 106.179733,43.5090909 C106.179733,44.5363688 105.848803,45.2999975 105.186933,45.8 C104.525063,46.3000025 103.645605,46.55 102.548533,46.55 L101.365333,46.55 L101.365333,50 L100.073333,50 L100.073333,40.6045455 L102.534933,40.6045455 C103.695472,40.6045455 104.593063,40.8477248 105.227733,41.3340909 Z M104.214533,45.0909091 C104.608935,44.7999985 104.806133,44.2772765 104.806133,43.5227273 C104.806133,42.8499966 104.608935,42.3636379 104.214533,42.0636364 C103.820131,41.7636349 103.255737,41.6136364 102.521333,41.6136364 L101.365333,41.6136364 L101.365333,45.5272727 L102.494133,45.5272727 C103.24667,45.5272727 103.820131,45.3818196 104.214533,45.0909091 Z M113.394533,41.0068182 C113.988403,41.3840928 114.450798,41.93636 114.781733,42.6636364 C115.112668,43.3909127 115.278133,44.2727221 115.278133,45.3090909 C115.278133,46.3272778 115.112668,47.1999964 114.781733,47.9272727 C114.450798,48.6545491 113.988403,49.209089 113.394533,49.5909091 C112.800664,49.9727292 112.109337,50.1636364 111.320533,50.1636364 C110.531729,50.1636364 109.840403,49.9772746 109.246533,49.6045455 C108.652664,49.2318163 108.190268,48.6818218 107.859333,47.9545455 C107.528398,47.2272691 107.362933,46.3500051 107.362933,45.3227273 C107.362933,44.3136313 107.528398,43.4409128 107.859333,42.7045455 C108.190268,41.9681781 108.65493,41.4068201 109.253333,41.0204545 C109.851736,40.634089 110.540796,40.4409091 111.320533,40.4409091 C112.109337,40.4409091 112.800664,40.6295436 113.394533,41.0068182 Z M109.416533,42.4318182 C108.963198,43.0500031 108.736533,44.0136298 108.736533,45.3227273 C108.736533,46.6227338 108.965464,47.5772697 109.423333,48.1863636 C109.881202,48.7954576 110.513596,49.1 111.320533,49.1 C113.043209,49.1 113.904533,47.8363763 113.904533,45.3090909 C113.904533,42.7727146 113.043209,41.5045455 111.320533,41.5045455 C110.504529,41.5045455 109.869869,41.8136333 109.416533,42.4318182 Z M123.601333,48.9363636 L123.601333,52.0454545 L122.581333,52.0454545 L122.377333,50 L116.978133,50 L116.774133,52.0454545 L115.754133,52.0454545 L115.754133,48.9363636 L116.393333,48.9363636 C116.638135,48.6999988 116.826266,48.4000018 116.957733,48.0363636 C117.089201,47.6727255 117.202533,47.1886394 117.297733,46.5840909 C117.392934,45.9795424 117.540266,44.8954624 117.739733,43.3318182 L118.079733,40.6045455 L122.839733,40.6045455 L122.839733,48.9363636 L123.601333,48.9363636 Z M121.547733,41.6681818 L119.208533,41.6681818 L119.018133,43.3863636 C118.854933,44.7863706 118.721201,45.8090877 118.616933,46.4545455 C118.512666,47.1000032 118.376668,47.6136345 118.208933,47.9954545 C118.041199,48.3772746 117.798668,48.6909079 117.481333,48.9363636 L121.547733,48.9363636 L121.547733,41.6681818 Z M130.550933,50 L129.843733,47.6409091 L126.294133,47.6409091 L125.586933,50 L124.281333,50 L127.286933,40.6045455 L128.918933,40.6045455 L131.910933,50 L130.550933,50 Z M126.606933,46.5909091 L129.530933,46.5909091 L128.075733,41.6818182 L126.606933,46.5909091 Z M142.831733,40.6045455 L140.356533,45.0090909 L143.090133,50 L141.634933,50 L139.309333,45.5954545 L138.194133,45.5954545 L138.194133,50 L136.956533,50 L136.956533,45.5954545 L135.827733,45.5954545 L133.488533,50 L132.060533,50 L134.794133,45.0090909 L132.318933,40.6045455 L133.706133,40.6045455 L135.841333,44.5318182 L136.956533,44.5318182 L136.956533,40.6045455 L138.194133,40.6045455 L138.194133,44.5318182 L139.309333,44.5318182 L141.471733,40.6045455 L142.831733,40.6045455 Z M149.509333,50 L148.802133,47.6409091 L145.252533,47.6409091 L144.545333,50 L143.239733,50 L146.245333,40.6045455 L147.877333,40.6045455 L150.869333,50 L149.509333,50 Z M145.565333,46.5909091 L148.489333,46.5909091 L147.034133,41.6818182 L145.565333,46.5909091 Z M162.483733,50 L161.191733,50 L161.191733,45.4181818 C161.191733,44.3545401 161.250666,43.2318241 161.368533,42.05 L157.574133,50 L155.914933,50 L155.914933,40.6045455 L157.206933,40.6045455 L157.206933,45.1863636 C157.206933,46.4590973 157.148001,47.5954495 157.030133,48.5954545 L160.865333,40.6045455 L162.483733,40.6045455 L162.483733,50 Z M170.439733,50 L170.439733,45.5954545 L166.495733,45.5954545 L166.495733,50 L165.203733,50 L165.203733,40.6045455 L166.495733,40.6045455 L166.495733,44.5318182 L170.439733,44.5318182 L170.439733,40.6045455 L171.731733,40.6045455 L171.731733,50 L170.439733,50 Z M183.930933,40.6045455 L181.455733,45.0090909 L184.189333,50 L182.734133,50 L180.408533,45.5954545 L179.293333,45.5954545 L179.293333,50 L178.055733,50 L178.055733,45.5954545 L176.926933,45.5954545 L174.587733,50 L173.159733,50 L175.893333,45.0090909 L173.418133,40.6045455 L174.805333,40.6045455 L176.940533,44.5318182 L178.055733,44.5318182 L178.055733,40.6045455 L179.293333,40.6045455 L179.293333,44.5318182 L180.408533,44.5318182 L182.570933,40.6045455 L183.930933,40.6045455 Z M190.690133,40.6045455 L190.540533,41.6409091 L186.909333,41.6409091 L186.909333,44.7090909 L190.064533,44.7090909 L190.064533,45.7454545 L186.909333,45.7454545 L186.909333,48.9636364 L190.798933,48.9636364 L190.798933,50 L185.617333,50 L185.617333,40.6045455 L190.690133,40.6045455 Z M198.129333,50 L198.129333,45.5954545 L194.185333,45.5954545 L194.185333,50 L192.893333,50 L192.893333,40.6045455 L194.185333,40.6045455 L194.185333,44.5318182 L198.129333,44.5318182 L198.129333,40.6045455 L199.421333,40.6045455 L199.421333,50 L198.129333,50 Z M207.214133,40.6045455 L207.064533,41.6409091 L203.433333,41.6409091 L203.433333,44.7090909 L206.588533,44.7090909 L206.588533,45.7454545 L203.433333,45.7454545 L203.433333,48.9636364 L207.322933,48.9636364 L207.322933,50 L202.141333,50 L202.141333,40.6045455 L207.214133,40.6045455 Z M214.571733,41.3340909 C215.206403,41.820457 215.523733,42.5454497 215.523733,43.5090909 C215.523733,44.5363688 215.192803,45.2999975 214.530933,45.8 C213.869063,46.3000025 212.989605,46.55 211.892533,46.55 L210.709333,46.55 L210.709333,50 L209.417333,50 L209.417333,40.6045455 L211.878933,40.6045455 C213.039472,40.6045455 213.937063,40.8477248 214.571733,41.3340909 Z M213.558533,45.0909091 C213.952935,44.7999985 214.150133,44.2772765 214.150133,43.5227273 C214.150133,42.8499966 213.952935,42.3636379 213.558533,42.0636364 C213.164131,41.7636349 212.599737,41.6136364 211.865333,41.6136364 L210.709333,41.6136364 L210.709333,45.5272727 L211.838133,45.5272727 C212.59067,45.5272727 213.164131,45.3818196 213.558533,45.0909091 Z M222.554933,50 L222.554933,45.5954545 L218.610933,45.5954545 L218.610933,50 L217.318933,50 L217.318933,40.6045455 L218.610933,40.6045455 L218.610933,44.5318182 L222.554933,44.5318182 L222.554933,40.6045455 L223.846933,40.6045455 L223.846933,50 L222.554933,50 Z M231.986533,41.0068182 C232.580403,41.3840928 233.042798,41.93636 233.373733,42.6636364 C233.704668,43.3909127 233.870133,44.2727221 233.870133,45.3090909 C233.870133,46.3272778 233.704668,47.1999964 233.373733,47.9272727 C233.042798,48.6545491 232.580403,49.209089 231.986533,49.5909091 C231.392664,49.9727292 230.701337,50.1636364 229.912533,50.1636364 C229.123729,50.1636364 228.432403,49.9772746 227.838533,49.6045455 C227.244664,49.2318163 226.782268,48.6818218 226.451333,47.9545455 C226.120398,47.2272691 225.954933,46.3500051 225.954933,45.3227273 C225.954933,44.3136313 226.120398,43.4409128 226.451333,42.7045455 C226.782268,41.9681781 227.24693,41.4068201 227.845333,41.0204545 C228.443736,40.634089 229.132796,40.4409091 229.912533,40.4409091 C230.701337,40.4409091 231.392664,40.6295436 231.986533,41.0068182 Z M228.008533,42.4318182 C227.555198,43.0500031 227.328533,44.0136298 227.328533,45.3227273 C227.328533,46.6227338 227.557464,47.5772697 228.015333,48.1863636 C228.473202,48.7954576 229.105596,49.1 229.912533,49.1 C231.635209,49.1 232.496533,47.8363763 232.496533,45.3090909 C232.496533,42.7727146 231.635209,41.5045455 229.912533,41.5045455 C229.096529,41.5045455 228.461869,41.8136333 228.008533,42.4318182 Z M241.390933,40.6045455 L241.200533,41.7227273 L237.270133,41.7227273 L237.270133,50 L235.978133,50 L235.978133,40.6045455 L241.390933,40.6045455 Z M247.490533,41.0068182 C248.084403,41.3840928 248.546798,41.93636 248.877733,42.6636364 C249.208668,43.3909127 249.374133,44.2727221 249.374133,45.3090909 C249.374133,46.3272778 249.208668,47.1999964 248.877733,47.9272727 C248.546798,48.6545491 248.084403,49.209089 247.490533,49.5909091 C246.896664,49.9727292 246.205337,50.1636364 245.416533,50.1636364 C244.627729,50.1636364 243.936403,49.9772746 243.342533,49.6045455 C242.748664,49.2318163 242.286268,48.6818218 241.955333,47.9545455 C241.624398,47.2272691 241.458933,46.3500051 241.458933,45.3227273 C241.458933,44.3136313 241.624398,43.4409128 241.955333,42.7045455 C242.286268,41.9681781 242.75093,41.4068201 243.349333,41.0204545 C243.947736,40.634089 244.636796,40.4409091 245.416533,40.4409091 C246.205337,40.4409091 246.896664,40.6295436 247.490533,41.0068182 Z M243.512533,42.4318182 C243.059198,43.0500031 242.832533,44.0136298 242.832533,45.3227273 C242.832533,46.6227338 243.061464,47.5772697 243.519333,48.1863636 C243.977202,48.7954576 244.609596,49.1 245.416533,49.1 C247.139209,49.1 248.000533,47.8363763 248.000533,45.3090909 C248.000533,42.7727146 247.139209,41.5045455 245.416533,41.5045455 C244.600529,41.5045455 243.965869,41.8136333 243.512533,42.4318182 Z M96.3129333,56.9159091 C96.906803,57.2931837 97.3691983,57.8454509 97.7001333,58.5727273 C98.0310683,59.3000036 98.1965333,60.181813 98.1965333,61.2181818 C98.1965333,62.2363687 98.0310683,63.1090873 97.7001333,63.8363636 C97.3691983,64.56364 96.906803,65.1181799 96.3129333,65.5 C95.7190637,65.8818201 95.0277373,66.0727273 94.2389333,66.0727273 C93.4501294,66.0727273 92.758803,65.8863655 92.1649333,65.5136364 C91.5710637,65.1409072 91.1086683,64.5909127 90.7777333,63.8636364 C90.4467983,63.13636 90.2813333,62.259096 90.2813333,61.2318182 C90.2813333,60.2227222 90.4467983,59.3500037 90.7777333,58.6136364 C91.1086683,57.877269 91.5733303,57.315911 92.1717333,56.9295455 C92.7701363,56.5431799 93.4591961,56.35 94.2389333,56.35 C95.0277373,56.35 95.7190637,56.5386345 96.3129333,56.9159091 Z M92.3349333,58.3409091 C91.8815977,58.959094 91.6549333,59.9227207 91.6549333,61.2318182 C91.6549333,62.5318247 91.8838644,63.4863606 92.3417333,64.0954545 C92.7996023,64.7045485 93.431996,65.0090909 94.2389333,65.0090909 C95.9616086,65.0090909 96.8229333,63.7454672 96.8229333,61.2181818 C96.8229333,58.6818055 95.9616086,57.4136364 94.2389333,57.4136364 C93.4229293,57.4136364 92.7882689,57.7227242 92.3349333,58.3409091 Z M105.465733,60.7681818 C106.09587,61.2500024 106.410933,61.9636316 106.410933,62.9090909 C106.410933,63.9454597 106.086803,64.704543 105.438533,65.1863636 C104.790263,65.6681842 103.904006,65.9090909 102.779733,65.9090909 L100.304533,65.9090909 L100.304533,56.5136364 L105.404533,56.5136364 L105.241333,57.5772727 L101.596533,57.5772727 L101.596533,60.0454545 L102.834133,60.0454545 C103.958406,60.0454545 104.835597,60.2863612 105.465733,60.7681818 Z M104.479733,64.45 C104.851469,64.1681804 105.037333,63.66364 105.037333,62.9363636 C105.037333,62.263633 104.851469,61.7818196 104.479733,61.4909091 C104.107998,61.1999985 103.564004,61.0545455 102.847733,61.0545455 L101.596533,61.0545455 L101.596533,64.8727273 L102.888533,64.8727273 C103.577603,64.8727273 104.107998,64.7318196 104.479733,64.45 Z M113.598533,56.9159091 C114.192403,57.2931837 114.654798,57.8454509 114.985733,58.5727273 C115.316668,59.3000036 115.482133,60.181813 115.482133,61.2181818 C115.482133,62.2363687 115.316668,63.1090873 114.985733,63.8363636 C114.654798,64.56364 114.192403,65.1181799 113.598533,65.5 C113.004664,65.8818201 112.313337,66.0727273 111.524533,66.0727273 C110.735729,66.0727273 110.044403,65.8863655 109.450533,65.5136364 C108.856664,65.1409072 108.394268,64.5909127 108.063333,63.8636364 C107.732398,63.13636 107.566933,62.259096 107.566933,61.2318182 C107.566933,60.2227222 107.732398,59.3500037 108.063333,58.6136364 C108.394268,57.877269 108.85893,57.315911 109.457333,56.9295455 C110.055736,56.5431799 110.744796,56.35 111.524533,56.35 C112.313337,56.35 113.004664,56.5386345 113.598533,56.9159091 Z M109.620533,58.3409091 C109.167198,58.959094 108.940533,59.9227207 108.940533,61.2318182 C108.940533,62.5318247 109.169464,63.4863606 109.627333,64.0954545 C110.085202,64.7045485 110.717596,65.0090909 111.524533,65.0090909 C113.247209,65.0090909 114.108533,63.7454672 114.108533,61.2181818 C114.108533,58.6818055 113.247209,57.4136364 111.524533,57.4136364 C110.708529,57.4136364 110.073869,57.7227242 109.620533,58.3409091 Z M122.744533,57.2431818 C123.379203,57.7295479 123.696533,58.4545406 123.696533,59.4181818 C123.696533,60.4454597 123.365603,61.2090884 122.703733,61.7090909 C122.041863,62.2090934 121.162405,62.4590909 120.065333,62.4590909 L118.882133,62.4590909 L118.882133,65.9090909 L117.590133,65.9090909 L117.590133,56.5136364 L120.051733,56.5136364 C121.212272,56.5136364 122.109863,56.7568157 122.744533,57.2431818 Z M121.731333,61 C122.125735,60.7090895 122.322933,60.1863674 122.322933,59.4318182 C122.322933,58.7590875 122.125735,58.2727288 121.731333,57.9727273 C121.336931,57.6727258 120.772537,57.5227273 120.038133,57.5227273 L118.882133,57.5227273 L118.882133,61.4363636 L120.010933,61.4363636 C120.76347,61.4363636 121.336931,61.2909105 121.731333,61 Z M128.551733,63.3727273 C128.306932,63.9909122 128.048535,64.477271 127.776533,64.8318182 C127.504532,65.1863654 127.178135,65.45909 126.797333,65.65 C126.416531,65.84091 125.936003,65.9818177 125.355733,66.0727273 L125.165333,65.1318182 C125.800003,65.0045448 126.271465,64.8159103 126.579733,64.5659091 C126.888002,64.3159078 127.141866,63.9045483 127.341333,63.3318182 L126.865333,63.3318182 L123.859733,56.5136364 L125.206133,56.5136364 L127.722133,62.5409091 L129.966133,56.5136364 L131.271733,56.5136364 L128.551733,63.3727273 Z M138.602133,64.8454545 L138.602133,67.9545455 L137.582133,67.9545455 L137.378133,65.9090909 L131.978933,65.9090909 L131.774933,67.9545455 L130.754933,67.9545455 L130.754933,64.8454545 L131.394133,64.8454545 C131.638935,64.6090897 131.827066,64.3090927 131.958533,63.9454545 C132.090001,63.5818164 132.203333,63.0977303 132.298533,62.4931818 C132.393734,61.8886333 132.541066,60.8045533 132.740533,59.2409091 L133.080533,56.5136364 L137.840533,56.5136364 L137.840533,64.8454545 L138.602133,64.8454545 Z M136.548533,57.5772727 L134.209333,57.5772727 L134.018933,59.2954545 C133.855733,60.6954615 133.722001,61.7181786 133.617733,62.3636364 C133.513466,63.0090941 133.377468,63.5227254 133.209733,63.9045455 C133.041999,64.2863655 132.799468,64.5999988 132.482133,64.8454545 L136.548533,64.8454545 L136.548533,57.5772727 Z M145.980133,56.9159091 C146.574003,57.2931837 147.036398,57.8454509 147.367333,58.5727273 C147.698268,59.3000036 147.863733,60.181813 147.863733,61.2181818 C147.863733,62.2363687 147.698268,63.1090873 147.367333,63.8363636 C147.036398,64.56364 146.574003,65.1181799 145.980133,65.5 C145.386264,65.8818201 144.694937,66.0727273 143.906133,66.0727273 C143.117329,66.0727273 142.426003,65.8863655 141.832133,65.5136364 C141.238264,65.1409072 140.775868,64.5909127 140.444933,63.8636364 C140.113998,63.13636 139.948533,62.259096 139.948533,61.2318182 C139.948533,60.2227222 140.113998,59.3500037 140.444933,58.6136364 C140.775868,57.877269 141.24053,57.315911 141.838933,56.9295455 C142.437336,56.5431799 143.126396,56.35 143.906133,56.35 C144.694937,56.35 145.386264,56.5386345 145.980133,56.9159091 Z M142.002133,58.3409091 C141.548798,58.959094 141.322133,59.9227207 141.322133,61.2318182 C141.322133,62.5318247 141.551064,63.4863606 142.008933,64.0954545 C142.466802,64.7045485 143.099196,65.0090909 143.906133,65.0090909 C145.628809,65.0090909 146.490133,63.7454672 146.490133,61.2181818 C146.490133,58.6818055 145.628809,57.4136364 143.906133,57.4136364 C143.090129,57.4136364 142.455469,57.7227242 142.002133,58.3409091 Z M155.670133,61.6272727 C156.069069,61.972729 156.268533,62.5090873 156.268533,63.2363636 C156.268533,65.0181907 155.030946,65.9090909 152.555733,65.9090909 L149.971733,65.9090909 L149.971733,56.5136364 L152.188533,56.5136364 C153.376273,56.5136364 154.285197,56.709089 154.915333,57.1 C155.54547,57.490911 155.860533,58.0863596 155.860533,58.8863636 C155.860533,59.4318209 155.690535,59.8863618 155.350533,60.25 C155.010532,60.6136382 154.595736,60.845454 154.106133,60.9454545 C154.74987,61.054546 155.271198,61.2818165 155.670133,61.6272727 Z M151.263733,57.5363636 L151.263733,60.4954545 L152.678133,60.4954545 C153.222136,60.4954545 153.668665,60.3636377 154.017733,60.1 C154.366802,59.8363623 154.541333,59.4636388 154.541333,58.9818182 C154.541333,58.4363609 154.357735,58.059092 153.990533,57.85 C153.623331,57.640908 153.068004,57.5363636 152.324533,57.5363636 L151.263733,57.5363636 Z M154.303333,64.5318182 C154.706802,64.3045443 154.908533,63.8727305 154.908533,63.2363636 C154.908533,62.6181787 154.713602,62.1727286 154.323733,61.9 C153.933865,61.6272714 153.426136,61.4909091 152.800533,61.4909091 L151.263733,61.4909091 L151.263733,64.8727273 L152.555733,64.8727273 C153.317337,64.8727273 153.899865,64.759092 154.303333,64.5318182 Z M163.163733,65.9090909 L162.456533,63.55 L158.906933,63.55 L158.199733,65.9090909 L156.894133,65.9090909 L159.899733,56.5136364 L161.531733,56.5136364 L164.523733,65.9090909 L163.163733,65.9090909 Z M159.219733,62.5 L162.143733,62.5 L160.688533,57.5909091 L159.219733,62.5 Z M171.201333,65.9090909 L171.201333,61.5045455 L167.257333,61.5045455 L167.257333,65.9090909 L165.965333,65.9090909 L165.965333,56.5136364 L167.257333,56.5136364 L167.257333,60.4409091 L171.201333,60.4409091 L171.201333,56.5136364 L172.493333,56.5136364 L172.493333,65.9090909 L171.201333,65.9090909 Z M181.782133,65.9090909 L180.490133,65.9090909 L180.490133,61.3272727 C180.490133,60.263631 180.549066,59.140915 180.666933,57.9590909 L176.872533,65.9090909 L175.213333,65.9090909 L175.213333,56.5136364 L176.505333,56.5136364 L176.505333,61.0954545 C176.505333,62.3681882 176.446401,63.5045405 176.328533,64.5045455 L180.163733,56.5136364 L181.782133,56.5136364 L181.782133,65.9090909 Z M190.023733,56.5136364 L190.023733,65.9090909 L188.731733,65.9090909 L188.731733,62.2136364 L186.827733,62.2136364 L185.018933,65.9090909 L183.550133,65.9090909 L185.590133,61.9818182 C185.000797,61.7545443 184.554268,61.418184 184.250533,60.9727273 C183.946798,60.5272705 183.794933,60.0045485 183.794933,59.4045455 C183.794933,58.486359 184.098664,57.7750025 184.706133,57.2704545 C185.313603,56.7659066 186.202127,56.5136364 187.371733,56.5136364 L190.023733,56.5136364 Z M188.731733,61.1909091 L188.731733,57.5227273 L187.453333,57.5227273 C186.646396,57.5227273 186.063868,57.6772712 185.705733,57.9863636 C185.347598,58.2954561 185.168533,58.7681786 185.168533,59.4045455 C185.168533,59.9954575 185.338532,60.4409076 185.678533,60.7409091 C186.018535,61.0409106 186.47413,61.1909091 187.045333,61.1909091 L188.731733,61.1909091 Z" id="Supply-chain-Managem" fill="#515151"></path>
        </g>
    </g>
</svg>