<?xml version="1.0" encoding="UTF-8"?>
<svg width="24px" height="17px" viewBox="0 0 24 17" version="1.1" xmlns="http://www.w3.org/2000/svg" xmlns:xlink="http://www.w3.org/1999/xlink">
    <!-- Generator: Sketch 42 (36781) - http://www.bohemiancoding.com/sketch -->
    <title>Shape</title>
    <desc>Created with Sketch.</desc>
    <defs></defs>
    <g id="Page-1" stroke="none" stroke-width="1" fill="none" fill-rule="evenodd">
        <g id="g-scm---main-page" transform="translate(-1281.000000, -2374.000000)" fill="#C54151">
            <g id="news" transform="translate(0.000000, 2320.000000)">
                <g id="controls" transform="translate(135.000000, 45.000000)">
                    <path d="M1162.16132,9.25566796 C1161.83436,8.91477735 1161.29019,8.91477735 1160.95179,9.25566796 C1160.62483,9.585042 1160.62483,10.133231 1160.95179,10.4618372 L1167.08479,16.6400957 L1146.84674,16.6400957 C1146.37498,16.6408635 1146,17.0186072 1146,17.4938578 C1146,17.9691085 1146.37498,18.3591365 1146.84674,18.3591365 L1167.08479,18.3591365 L1160.95179,24.5258784 C1160.62483,24.866769 1160.62483,25.4157258 1160.95179,25.744332 C1161.29019,26.0852227 1161.83512,26.0852227 1162.16132,25.744332 L1169.74621,18.1034685 C1170.0846,17.7740945 1170.0846,17.2259055 1169.74621,16.8972993 L1162.16132,9.25566796 Z" id="Shape"></path>
                </g>
            </g>
        </g>
    </g>
</svg>