<?xml version="1.0" encoding="UTF-8"?>
<svg width="40px" height="32px" viewBox="0 0 40 32" version="1.1" xmlns="http://www.w3.org/2000/svg" xmlns:xlink="http://www.w3.org/1999/xlink">
    <!-- Generator: Sketch 42 (36781) - http://www.bohemiancoding.com/sketch -->
    <title>ico</title>
    <desc>Created with Sketch.</desc>
    <defs></defs>
    <g id="Page-1" stroke="none" stroke-width="1" fill="none" fill-rule="evenodd">
        <g id="g-scm---main-page" transform="translate(-1014.000000, -1528.000000)" fill="#798B96">
            <g id="section" transform="translate(0.000000, 1483.000000)">
                <g id="items" transform="translate(135.000000, 45.000000)">
                    <g id="item" transform="translate(879.000000, 0.000000)">
                        <path d="M9.43654555,6.75907591 C9.43654555,6.01276832 9.17324908,5.37557756 8.64665613,4.84752475 C8.12006319,4.31947195 7.48463402,4.05544554 6.74038968,4.05544554 C5.99614534,4.05544554 5.36071617,4.31947195 4.83412322,4.84752475 C4.30753028,5.37557756 4.04423381,6.01276832 4.04423381,6.75907591 C4.04423381,7.5053835 4.30753028,8.14257426 4.83412322,8.67062706 C5.36071617,9.19867987 5.99614534,9.46270627 6.74038968,9.46270627 C7.48463402,9.46270627 8.12006319,9.19867987 8.64665613,8.67062706 C9.17324908,8.14257426 9.43654555,7.5053835 9.43654555,6.75907591 Z M31.9115324,18.9254125 C31.9115324,19.6717201 31.6517536,20.3053835 31.1321748,20.8264026 L20.7898894,31.2184818 C20.2422328,31.739501 19.603307,32 18.8730911,32 C18.1288468,32 17.4969352,31.739501 16.9773565,31.2184818 L1.91679831,16.0950495 C1.38319115,15.5740304 0.930321222,14.8629333 0.55818852,13.9617162 C0.186055819,13.060499 0,12.2367366 0,11.490429 L0,2.70363036 C0,1.9713901 0.266814113,1.33772673 0.800421274,0.802640264 C1.33402844,0.267553795 1.96593997,0 2.69615587,0 L11.4586625,0 C12.2029068,0 13.0243918,0.186571617 13.9231174,0.559735974 C14.8218431,0.93290033 15.5380095,1.38702574 16.0716166,1.92211221 L31.1321748,17.0033003 C31.6517536,17.5524752 31.9115324,18.1931723 31.9115324,18.9254125 Z M40,18.9254125 C40,19.6717201 39.7402212,20.3053835 39.2206424,20.8264026 L28.878357,31.2184818 C28.3307004,31.739501 27.6917746,32 26.9615587,32 C26.4560295,32 26.0417694,31.9014231 25.7187994,31.7042904 C25.3958294,31.5071578 25.0236967,31.1903261 24.6024223,30.7537954 L34.5023697,20.8264026 C35.0219484,20.3053835 35.2817272,19.6717201 35.2817272,18.9254125 C35.2817272,18.1931723 35.0219484,17.5524752 34.5023697,17.0033003 L19.4418115,1.92211221 C18.9082043,1.38702574 18.1920379,0.93290033 17.2933123,0.559735974 C16.3945866,0.186571617 15.5731016,0 14.8288573,0 L19.5471301,0 C20.2913744,0 21.1128594,0.186571617 22.011585,0.559735974 C22.9103107,0.93290033 23.6264771,1.38702574 24.1600843,1.92211221 L39.2206424,17.0033003 C39.7402212,17.5524752 40,18.1931723 40,18.9254125 Z" id="ico"></path>
                    </g>
                </g>
            </g>
        </g>
    </g>
</svg>