<?xml version="1.0" encoding="UTF-8"?>
<svg width="30px" height="32px" viewBox="0 0 30 32" version="1.1" xmlns="http://www.w3.org/2000/svg" xmlns:xlink="http://www.w3.org/1999/xlink">
    <!-- Generator: Sketch 42 (36781) - http://www.bohemiancoding.com/sketch -->
    <title>ico</title>
    <desc>Created with Sketch.</desc>
    <defs></defs>
    <g id="Page-1" stroke="none" stroke-width="1" fill="none" fill-rule="evenodd">
        <g id="g-scm---main-page" transform="translate(-135.000000, -1528.000000)" fill="#798B96">
            <g id="section" transform="translate(0.000000, 1483.000000)">
                <g id="items" transform="translate(135.000000, 45.000000)">
                    <g id="item">
                        <path d="M29.0432169,17.884744 C29.6813459,16.9357881 30,15.891189 30,14.7502057 C30,13.4295884 29.5057373,12.2825432 28.5163911,11.3072518 C27.5265659,10.3329706 26.3545648,9.84593106 25.0005245,9.84593106 L21.5628506,9.84593106 C22.1877081,8.57683977 22.5006841,7.34593843 22.5006841,6.1538332 C22.5006841,4.65378374 22.2721945,3.46161116 21.8168572,2.57697869 C21.3610409,1.69207681 20.6968477,1.04163553 19.8243458,0.624779257 C18.9516386,0.208125043 17.9688597,0 16.8751197,0 C16.2107212,0 15.6249943,0.237154782 15.1171864,0.711666411 C14.5573869,1.25002999 14.1536992,1.94250041 13.9063968,2.78867352 C13.6589576,3.63457721 13.4602948,4.44559134 13.310682,5.22124441 C13.1610692,5.99683013 12.9297064,6.54489275 12.6173461,6.8653649 C11.9791486,7.54483592 11.2825974,8.36554908 10.5273503,9.32696554 C9.21223537,11.006245 8.3201682,11.9999242 7.8516277,12.3077338 L2.50004561,12.3077338 C1.80992493,12.3077338 1.22064068,12.5484583 0.732329682,13.0288298 C0.244223911,13.5096727 0,14.089796 0,14.7693344 L0,27.0765293 C0,27.7560677 0.24395027,28.3359889 0.732329682,28.8168319 C1.22091432,29.2976748 1.80992493,29.5382647 2.50004561,29.5382647 L8.12478907,29.5382647 C8.4112904,29.5382647 9.30958288,29.7946154 10.820077,30.3074517 C12.4217617,30.8588147 13.8312826,31.2785672 15.0486396,31.5671134 C16.2661334,31.8556596 17.4999088,32 18.7500342,32 L20.5659792,32 L21.2695083,32 C23.1053606,32 24.5831547,31.4836613 25.7030958,30.4515227 C26.8226264,29.4193842 27.376269,28.0124185 27.3634079,26.2304236 C28.1446508,25.2432104 28.5352038,24.1022271 28.5352038,22.8075412 C28.5352038,22.5256631 28.5159806,22.2500489 28.4767132,21.9805641 C28.9713179,21.1219304 29.219236,20.1988386 29.219236,19.2116254 C29.2190308,18.7500458 29.1605402,18.3075275 29.0432169,17.884744 Z M4.62903505,26.7114012 C4.38166428,26.9548199 4.08873241,27.0770008 3.75017103,27.0770008 C3.41154123,27.0770008 3.11854095,26.9548873 2.87110177,26.7114012 C2.6237994,26.4680498 2.50004561,26.1795036 2.50004561,25.8458974 C2.50004561,25.5126279 2.62352576,25.2242838 2.87110177,24.9805956 C3.11881459,24.7369748 3.41154123,24.6151981 3.75017103,24.6151981 C4.08873241,24.6151981 4.38166428,24.7369748 4.62903505,24.9805956 C4.87647424,25.2242164 5.00022803,25.5125605 5.00022803,25.8458974 C5.00022803,26.1795036 4.87647424,26.4680498 4.62903505,26.7114012 Z M27.0809428,16.3279822 C26.8009404,16.9176024 26.452528,17.2188786 26.0359107,17.2315412 C26.231153,17.4495674 26.3940374,17.7543459 26.5242901,18.1450014 C26.6544061,18.5361283 26.7190536,18.8917594 26.7190536,19.2124336 C26.7190536,20.0965946 26.3744721,20.8595851 25.684283,21.5003947 C25.9189295,21.9104481 26.0359791,22.3529664 26.0359791,22.8270739 C26.0359791,23.3014509 25.9222132,23.7725948 25.6942025,24.2404383 C25.4666022,24.7078777 25.1571151,25.0445149 24.7666305,25.2495417 C24.8316885,25.6340678 24.863978,25.9931341 24.863978,26.3264035 C24.863978,28.4672626 23.6138526,29.5377258 21.1135333,29.5377258 L18.7509235,29.5377258 C17.0447767,29.5377258 14.8185081,29.0700843 12.0708181,28.1339931 C12.0056233,28.1083985 11.8170852,28.040842 11.5043828,27.9320647 C11.1916804,27.8232874 10.9606597,27.7430683 10.8108416,27.6919463 C10.6610236,27.6402855 10.4333549,27.5665998 10.1271515,27.4706872 C9.82101648,27.374303 9.57391935,27.3037156 9.38497077,27.2590597 C9.19629582,27.2143364 8.98128301,27.172644 8.74061642,27.1341173 C8.49981301,27.095658 8.29465125,27.0765293 8.12540476,27.0765293 L7.50041046,27.0765293 L7.50041046,14.7698059 L8.12540476,14.7698059 C8.33371339,14.7698059 8.56480257,14.7119485 8.81874071,14.5968398 C9.07261044,14.4813944 9.33318435,14.308361 9.60005199,14.0775375 C9.86705645,13.8467141 10.1175057,13.6191909 10.3520154,13.3946988 C10.5864566,13.1704087 10.8468253,12.8883959 11.1333951,12.5487951 C11.419828,12.2089249 11.6444182,11.9366111 11.8073025,11.7314497 C11.9699817,11.5263556 12.1750066,11.263404 12.4224458,10.9429319 C12.6697482,10.6225271 12.8196346,10.430163 12.8716947,10.3659742 C13.5877427,9.49434118 14.0890517,8.91105222 14.3754846,8.61604003 C14.9093567,8.06494646 15.2966944,7.36304644 15.5375662,6.51047466 C15.7787117,5.65776817 15.9772377,4.85328742 16.132939,4.09703241 C16.2890507,3.34071004 16.5367636,2.79567837 16.8757354,2.46234153 C18.1254504,2.46234153 18.9590269,2.76348298 19.3755758,3.36610264 C19.7920562,3.9685876 20.0004333,4.89814544 20.0004333,6.15450674 C20.0004333,6.91082911 19.6876625,7.93959996 19.0625314,9.24075193 C18.4376739,10.5420386 18.1254504,11.5644781 18.1254504,12.3080032 L25.0003192,12.3080032 C25.6520619,12.3080032 26.2312214,12.5546549 26.7388241,13.0484973 C27.2468372,13.5420028 27.5011174,14.1155928 27.5011174,14.7696038 C27.5009121,15.2182514 27.3608767,15.7375536 27.0809428,16.3279822 Z" id="ico"></path>
                    </g>
                </g>
            </g>
        </g>
    </g>
</svg>