<?xml version="1.0" encoding="UTF-8"?>
<svg width="39px" height="32px" viewBox="0 0 39 32" version="1.1" xmlns="http://www.w3.org/2000/svg" xmlns:xlink="http://www.w3.org/1999/xlink">
    <!-- Generator: Sketch 42 (36781) - http://www.bohemiancoding.com/sketch -->
    <title>ico</title>
    <desc>Created with Sketch.</desc>
    <defs></defs>
    <g id="Page-1" stroke="none" stroke-width="1" fill="none" fill-rule="evenodd">
        <g id="g-scm---main-page" transform="translate(-355.000000, -1735.000000)" fill="#798B96">
            <g id="section" transform="translate(0.000000, 1483.000000)">
                <g id="items" transform="translate(135.000000, 45.000000)">
                    <g id="item" transform="translate(220.000000, 207.000000)">
                        <path d="M38.5717773,0.43176549 C38.286164,0.144240241 37.9468748,0 37.5562021,0 L14.4446931,0 C14.0535461,0 13.7148102,0.144240241 13.4291179,0.43176549 C13.1433466,0.719688753 13.0003424,1.06078667 13.0003424,1.45466124 L13.0003424,5.81832655 L9.38903076,5.81832655 C8.98270583,5.81832655 8.54238874,5.91679519 8.06847474,6.11373247 C7.59448169,6.31098817 7.21463903,6.55298063 6.92886771,6.84090389 L2.4599259,11.3409288 C2.26443144,11.537866 2.09534019,11.7649728 1.95209879,12.0227266 C1.80925265,12.2798436 1.70387695,12.5114877 1.63612978,12.7156688 C1.56854071,12.9204072 1.51937065,13.2003702 1.48956822,13.5567518 C1.45968673,13.9129743 1.44055626,14.1743102 1.43304636,14.341078 C1.42585267,14.507607 1.42585267,14.7956099 1.43304636,15.2047682 C1.44063531,15.6140857 1.44442979,15.8790038 1.44442979,16.000398 L1.44442979,23.2729082 C1.0533618,23.2729082 0.714863099,23.4167504 0.428854618,23.7049921 C0.143004241,23.9922785 0,24.3335357 0,24.7274898 C0,24.9544374 0.0298814831,25.1554344 0.0901187585,25.3294461 C0.150435086,25.5037762 0.251858215,25.6437975 0.39509961,25.7500672 C0.537945747,25.8563369 0.662135721,25.9431835 0.767353324,26.0115623 C0.872887133,26.0796227 1.04964638,26.1249167 1.29786823,26.1477627 C1.54609007,26.1706087 1.71526037,26.1858924 1.80561628,26.1935343 C1.8959722,26.2006189 2.08767219,26.2006189 2.38103246,26.1935343 C2.67470894,26.1858924 2.84387924,26.1820715 2.88909673,26.1820715 L4.33344746,26.1820715 C4.33344746,27.7876596 4.89779642,29.1589767 6.02602004,30.2954656 C7.15463891,31.4317157 8.51622268,32 10.1112457,32 C11.7061105,32 13.0678524,31.4317157 14.1962341,30.2954656 C15.324853,29.1590563 15.8888067,27.7876596 15.8888067,26.1820715 L24.5557807,26.1820715 C24.5557807,27.7876596 25.1201296,29.1589767 26.2484323,30.2954656 C27.3765769,31.4317157 28.7383978,32 30.3334208,32 C31.9287599,32 33.2897113,31.4317157 34.4184092,30.2954656 C35.5470281,29.1590563 36.1110609,27.7876596 36.1110609,26.1820715 C36.1559621,26.1820715 36.3253696,26.1858924 36.6185718,26.1935343 C36.9120901,26.2006189 37.1039482,26.2006189 37.1942251,26.1935343 C37.2846601,26.1858924 37.4542256,26.1706087 37.7022894,26.1477627 C37.9504321,26.1249167 38.1270333,26.0797023 38.2325671,26.0115623 C38.3381009,25.9434223 38.4618956,25.8563369 38.6048208,25.7500672 C38.7479041,25.6437975 38.8496434,25.5037762 38.9096436,25.3294461 C38.9705133,25.1553548 38.9999995,24.9543578 38.9999995,24.7274898 L38.9999995,1.45490005 C39.0003157,1.06094588 38.8574695,0.720245973 38.5717773,0.43176549 Z M12.1420798,28.2274649 C11.5706162,28.8029931 10.8933026,29.0914735 10.1109294,29.0914735 C9.32847728,29.0914735 8.65132177,28.8033115 8.07954196,28.2274649 C7.50776215,27.652096 7.22199083,26.9699798 7.22199083,26.1822307 C7.22199083,25.3944019 7.50807836,24.7119673 8.07954196,24.1363596 C8.65124272,23.5609907 9.32839823,23.2728286 10.1109294,23.2728286 C10.8933026,23.2728286 11.5705371,23.5607518 12.1420798,24.1363596 C12.7140967,24.7119673 13.0000262,25.3944019 13.0000262,26.1822307 C13.0000262,26.9699798 12.7140967,27.652096 12.1420798,28.2274649 Z M13.0000262,14.5455776 L4.33313125,14.5455776 L4.33313125,13.8640185 C4.33313125,13.6670017 4.40072032,13.5003134 4.53613562,13.3638743 L8.9372512,8.93222818 C9.07258744,8.79578901 9.23835852,8.72780824 9.43393204,8.72780824 L13.0000262,8.72780824 L13.0000262,14.5455776 Z M32.364492,28.2274649 C31.7929494,28.8029931 31.1157148,29.0914735 30.3334208,29.0914735 C29.5508105,29.0914735 28.8733388,28.8033115 28.3017961,28.2274649 C27.7301744,27.652096 27.4441659,26.9699798 27.4441659,26.1822307 C27.4441659,25.3944019 27.7300954,24.7119673 28.3017961,24.1363596 C28.8733388,23.5609907 29.5508105,23.2728286 30.3334208,23.2728286 C31.1157148,23.2728286 31.7929494,23.5607518 32.364492,24.1363596 C32.9361137,24.7122857 33.2223594,25.3944019 33.2223594,26.1822307 C33.2223594,26.9699798 32.9366671,27.652096 32.364492,28.2274649 Z" id="ico"></path>
                    </g>
                </g>
            </g>
        </g>
    </g>
</svg>