<?xml version="1.0" encoding="UTF-8"?>
<svg width="16px" height="18px" viewBox="0 0 16 18" version="1.1" xmlns="http://www.w3.org/2000/svg" xmlns:xlink="http://www.w3.org/1999/xlink">
    <!-- Generator: Sketch 42 (36781) - http://www.bohemiancoding.com/sketch -->
    <title>Group 2</title>
    <desc>Created with Sketch.</desc>
    <defs></defs>
    <g id="Symbols" stroke="none" stroke-width="1" fill="none" fill-rule="evenodd">
        <g id="header" transform="translate(-1125.000000, -63.000000)">
            <g id="content">
                <g transform="translate(135.000000, 37.000000)">
                    <g id="right" transform="translate(526.000000, 2.000000)">
                        <g id="main-cabinet" transform="translate(459.000000, 19.000000)">
                            <g id="Group-2" transform="translate(0.000000, 2.000000)">
                                <rect id="Rectangle" x="0" y="0" width="25" height="25"></rect>
                                <path d="M12.9999204,12.0001026 C11.7953771,12.0001026 10.7671133,11.5604966 9.91473092,10.6816539 C9.06242817,9.80281122 8.6362768,8.74229754 8.6362768,7.49994869 C8.6362768,6.25776402 9.06242817,5.19725035 9.91473092,4.31820244 C10.7668745,3.43940081 11.7954169,3 12.9999204,3 C14.2044239,3 15.2328071,3.43940081 16.0852293,4.31820244 C16.9374524,5.19725035 17.3636436,6.25780507 17.3636436,7.49994869 C17.3636436,8.74229754 16.9374524,9.80281122 16.0852293,10.6816539 C15.2330857,11.5604966 14.2047423,12.0001026 12.9999204,12.0001026 Z M20.9598804,16.7519936 C20.9867064,17.146695 20.9999204,17.5510012 21,17.9650764 C21,18.9025332 20.7236205,19.6428446 20.1703441,20.1858463 C19.6171872,20.7286428 18.8823775,21 17.9658357,21 L8.03412455,21 C7.11750307,21 6.38261384,20.7286428 5.82953647,20.1858463 C5.27657849,19.6428446 5,18.9024101 5,17.9650764 C5,17.5510012 5.013214,17.146695 5.03972159,16.7519936 C5.06626899,16.3572922 5.11928418,15.931683 5.19888656,15.4745912 C5.27840935,15.0174994 5.37882776,14.5938604 5.50002239,14.2030584 C5.62125682,13.8127079 5.7841233,13.4316339 5.98858203,13.0604931 C6.19304076,12.6893934 6.4279076,12.3730494 6.69302335,12.111215 C6.9582187,11.8496268 7.2820412,11.640619 7.66465007,11.4843967 C8.04717934,11.3282155 8.4695496,11.2499812 8.93164145,11.2499812 C8.99982089,11.2499812 9.15882666,11.333962 9.40889756,11.5019645 C9.65884905,11.6700081 9.94099971,11.8575077 10.2553495,12.0646274 C10.5697392,12.2713777 10.9789352,12.4590415 11.4826193,12.6267567 C11.9863432,12.7947593 12.4919776,12.8787811 12.9995224,12.8787811 C13.5072662,12.8787811 14.0128608,12.7947593 14.5166643,12.6267567 C15.020229,12.4590415 15.4295444,12.2713777 15.7438942,12.0646274 C16.0582839,11.8575077 16.3405141,11.6699671 16.5903064,11.5019645 C16.8403375,11.333962 16.9994627,11.2499812 17.0675625,11.2499812 C17.5296942,11.2499812 17.9520644,11.3282155 18.3348325,11.4843967 C18.717123,11.640619 19.0409057,11.8494626 19.3062204,12.111215 C19.5715352,12.3730494 19.8063622,12.6893934 20.0108209,13.0604931 C20.2153593,13.4316339 20.3782656,13.8125438 20.4995,14.2030584 C20.6207344,14.5938604 20.7212324,15.0174994 20.800795,15.4745912 C20.8801984,15.931683 20.9332932,16.3575795 20.9598804,16.7519936 Z" id="ico" fill="#798B96"></path>
                            </g>
                        </g>
                    </g>
                </g>
            </g>
        </g>
    </g>
</svg>