<?xml version="1.0" encoding="UTF-8"?>
<svg width="16px" height="16px" viewBox="0 0 16 16" version="1.1" xmlns="http://www.w3.org/2000/svg" xmlns:xlink="http://www.w3.org/1999/xlink">
    <!-- Generator: Sketch 42 (36781) - http://www.bohemiancoding.com/sketch -->
    <title>close</title>
    <desc>Created with Sketch.</desc>
    <defs></defs>
    <g id="Page-1" stroke="none" stroke-width="1" fill="none" fill-rule="evenodd">
        <path d="M14.9273668,3.98431129 C14.2119617,2.75869492 13.2415605,1.78829367 12.0159076,1.07292512 C10.7900358,0.35759306 9.45182564,0 8.0002554,0 C6.5488311,0 5.21021955,0.35759306 3.98456669,1.07292512 C2.75884086,1.78818421 1.78843961,2.75858546 1.07303458,3.98431129 C0.35759306,5.21011009 0,6.54872164 0,8.00003649 C0,9.4514243 0.357702517,10.7898169 1.07292512,12.0156887 C1.78829367,13.2413051 2.75869492,14.2117063 3.98442075,14.9271478 C5.21021955,15.6424434 6.54872164,16.000073 8.00010946,16.000073 C9.45149727,16.000073 10.7901453,15.6424434 12.0158711,14.9271478 C13.241524,14.2119617 14.2118888,13.2413051 14.9272208,12.0156887 C15.6424434,10.7899264 16,9.45135133 16,8.00003649 C16.0000365,6.5485757 15.6424434,5.20992767 14.9273668,3.98431129 Z M11.7709449,9.88530826 C11.9029124,10.0171299 11.9689874,10.1737251 11.9689874,10.3542911 C11.9689874,10.5415705 11.9029124,10.7014129 11.7709449,10.8332345 L10.8335264,11.7709449 C10.7016683,11.9027665 10.5418624,11.9686956 10.3542911,11.9686956 C10.1737615,11.9686956 10.0173123,11.9027665 9.88556365,11.7709449 L8.00014594,9.88530826 L6.11465526,11.7709449 C5.98272418,11.9027665 5.82649385,11.9686956 5.64592778,11.9686956 C5.458393,11.9686956 5.29869656,11.9027665 5.166729,11.7709449 L4.22916458,10.8332345 C4.0972335,10.7014129 4.03126796,10.5415705 4.03126796,10.3542911 C4.03126796,10.1737615 4.09726998,10.0171664 4.22916458,9.88530826 L6.11465526,8 L4.22916458,6.11450932 C4.0972335,5.98272418 4.03126796,5.82634791 4.03126796,5.64578184 C4.03126796,5.45824706 4.09726998,5.29855062 4.22916458,5.16658305 L5.166729,4.22916458 C5.29869656,4.0972335 5.458393,4.03126796 5.64592778,4.03126796 C5.82649385,4.03126796 5.98272418,4.09726998 6.11465526,4.22916458 L8.00014594,6.11450932 L9.88556365,4.22916458 C10.0172758,4.0972335 10.1737251,4.03126796 10.3542911,4.03126796 C10.5418624,4.03126796 10.7016683,4.09726998 10.8335264,4.22916458 L11.7709449,5.16658305 C11.9029124,5.29855062 11.9689874,5.45824706 11.9689874,5.64578184 C11.9689874,5.82631142 11.9029124,5.98272418 11.7709449,6.11450932 L9.88556365,8 L11.7709449,9.88530826 Z" id="close" fill="#FFFFFF" fill-rule="nonzero"></path>
    </g>
</svg>