<?xml version="1.0" encoding="UTF-8"?>
<svg width="20px" height="20px" viewBox="0 0 20 20" version="1.1" xmlns="http://www.w3.org/2000/svg" xmlns:xlink="http://www.w3.org/1999/xlink">
    <!-- Generator: Sketch 42 (36781) - http://www.bohemiancoding.com/sketch -->
    <title>Group</title>
    <desc>Created with Sketch.</desc>
    <defs>
        <rect id="path-1" x="0" y="0" width="20" height="20"></rect>
        <filter x="-50%" y="-50%" width="200%" height="200%" filterUnits="objectBoundingBox" id="filter-2">
            <feGaussianBlur stdDeviation="2" in="SourceAlpha" result="shadowBlurInner1"></feGaussianBlur>
            <feOffset dx="0" dy="1" in="shadowBlurInner1" result="shadowOffsetInner1"></feOffset>
            <feComposite in="shadowOffsetInner1" in2="SourceAlpha" operator="arithmetic" k2="-1" k3="1" result="shadowInnerInner1"></feComposite>
            <feColorMatrix values="0 0 0 0 0   0 0 0 0 0   0 0 0 0 0  0 0 0 0.273239357 0" type="matrix" in="shadowInnerInner1"></feColorMatrix>
        </filter>
        <polygon id="path-3" points="2 2 6.07421875 2 18 2 18 18 2 18"></polygon>
        <filter x="-50%" y="-50%" width="200%" height="200%" filterUnits="objectBoundingBox" id="filter-4">
            <feGaussianBlur stdDeviation="2" in="SourceAlpha" result="shadowBlurInner1"></feGaussianBlur>
            <feOffset dx="0" dy="1" in="shadowBlurInner1" result="shadowOffsetInner1"></feOffset>
            <feComposite in="shadowOffsetInner1" in2="SourceAlpha" operator="arithmetic" k2="-1" k3="1" result="shadowInnerInner1"></feComposite>
            <feColorMatrix values="0 0 0 0 0   0 0 0 0 0   0 0 0 0 0  0 0 0 0.1 0" type="matrix" in="shadowInnerInner1"></feColorMatrix>
        </filter>
    </defs>
    <g id="Page-1" stroke="none" stroke-width="1" fill="none" fill-rule="evenodd">
        <g id="g-scm---catalog" transform="translate(-135.000000, -847.000000)">
            <g id="filter" transform="translate(135.000000, 569.000000)">
                <g transform="translate(0.000000, 172.000000)" id="checkboxes">
                    <g transform="translate(0.000000, 106.000000)">
                        <g id="row">
                            <g id="Group">
                                <g id="checkbox" fill-opacity="1" fill="black">
                                    <use filter="url(#filter-2)" xlink:href="#path-1"></use>
                                </g>
                                <g id="checkbox">
                                    <use fill="#C1041B" fill-rule="evenodd" xlink:href="#path-3"></use>
                                    <use fill="black" fill-opacity="1" filter="url(#filter-4)" xlink:href="#path-3"></use>
                                </g>
                                <g id="correct-symbol" transform="translate(4.000000, 5.000000)" fill-rule="nonzero" fill="#FFFFFF">
                                    <path d="M11.7708081,1.28665463 L10.7190339,0.234880361 C10.5748172,0.0905553047 10.3994221,0.0183656885 10.1932551,0.0183656885 C9.98689842,0.0183656885 9.81150339,0.0905553047 9.66728668,0.234880361 L4.59386005,5.31597291 L2.32011738,3.03448307 C2.17573815,2.89010384 2.00045147,2.81799549 1.79428442,2.81799549 C1.58798194,2.81799549 1.41269526,2.89010384 1.26831603,3.03448307 L0.216541761,4.08628442 C0.0721625282,4.23063657 0,4.40597743 0,4.61225282 C0,4.81836569 0.0721625282,4.99386907 0.216541761,5.13819413 L3.01611738,7.93771558 L4.06797291,8.98948984 C4.21227088,9.13392325 4.38761174,9.2060316 4.59386005,9.2060316 C4.80002709,9.2060316 4.97536795,9.13373363 5.11974718,8.98948984 L6.17157562,7.93771558 L11.7708081,2.33851016 C11.9150519,2.19413093 11.9873499,2.01881716 11.9873499,1.81254176 C11.9874582,1.60637472 11.9150519,1.43103386 11.7708081,1.28665463 Z" id="Shape"></path>
                                </g>
                            </g>
                        </g>
                    </g>
                </g>
            </g>
        </g>
    </g>
</svg>